<?xml version="1.0" encoding="utf-8"?>
<!-- Generator: Adobe Illustrator 19.2.0, SVG Export Plug-In . SVG Version: 6.00 Build 0)  -->
<svg version="1.1" id="Layer_1" xmlns="http://www.w3.org/2000/svg" xmlns:xlink="http://www.w3.org/1999/xlink" x="0px" y="0px"
	 viewBox="0 0 310.9 57.7" style="enable-background:new 0 0 310.9 57.7;" xml:space="preserve">
<style type="text/css">
	.st0{fill:#0C76B2;}
</style>
<g>
	<g>
		<path class="st0" d="M247.6,51.6h-40.9c-5.7,0-7.1-1.6-7.1-6V22.9c0-0.8,0.6-1.4,1.4-1.4h23.7c0.7,0,1.6,0.5,2.1,1.1l21.3,27.9
			C248.6,51.1,248.4,51.6,247.6,51.6 M35.2,51.5h-9.4c-0.8,0-1.5-0.6-1.5-1.5V7.7c0-0.8,0.7-1.5,1.4-1.5h9.4
			c23.2,0,35.5,9.5,35.5,22.6C70.7,42,58.3,51.5,35.2,51.5 M310,15.5h-6.8c-1.2,0-2.3,1.1-2.3,1.1l-25.8,33.8
			c-0.5,0.6-1.2,0.6-1.7,0l-23.8-33.8c0,0-0.9-1.2-2.6-1.2h-45.8c-0.8,0-1.5-0.7-1.4-1.4l0-11.2c0-1.6-1.3-2.9-2.9-2.9h-70.1
			c-10.9,0.4-15.5,1.4-20.5,4.3c-4.6,2.7-6.9,6.1-6.9,10.2c0,4.4,3.5,8.6,10.6,12.9c1.8,1.1,8.4,4.3,19.7,9.5
			c7.1,3.3,10.9,6,10.6,8.6c-0.4,4.3-4.3,5.7-13.6,5.7H84.3c-1,0-1.9-0.2-1.9-1c0-0.4,0.2-0.8,0.7-1l0,0
			c9.5-5.7,12.6-13.4,12.6-20.4C95.7,15.8,84.7,0,41,0H2.9C1.3,0,0,1.3,0,2.9v51.9c0,1.6,1.3,2.9,2.9,2.9H41c1.5,0,2.9,0,4.2,0h95.2
			c8.7,0,15.5-1.5,20.4-4.3c4.5-2.7,6.8-6,6.8-10.2c0-4.3-3.5-8.6-10.6-12.8c-1.8-1.1-8.4-4.3-19.7-9.5c-7.1-3.3-10.6-5.9-10.6-8
			c0-4.3,4.6-6.4,13.8-6.4h32.2c0.8,0,1.4,0.6,1.4,1.4l0,37.7c0,5.5,3.7,12.1,14.7,12.1h88.5c2.1,0,3.2-1.4,3.2-1.4l30.3-39.9
			C310.7,16.5,311.4,15.5,310,15.5"/>
	</g>
</g>
</svg>
