<?xml version="1.0" encoding="utf-8"?>
<!-- Generator: Adobe Illustrator 19.0.1, SVG Export Plug-In . SVG Version: 6.00 Build 0)  -->
<svg version="1.1" id="Layer_1" xmlns="http://www.w3.org/2000/svg" xmlns:xlink="http://www.w3.org/1999/xlink" x="0px" y="0px"
	 viewBox="0 0 385.4 143.4" style="enable-background:new 0 0 385.4 143.4;" xml:space="preserve">
<style type="text/css">
	.st0{fill-rule:evenodd;clip-rule:evenodd;fill:#FFFFFF;}
	.st1{fill:none;stroke:#FFFFFF;stroke-width:0.216;stroke-miterlimit:22.9256;}
	.st2{fill-rule:evenodd;clip-rule:evenodd;}
	.st3{fill:none;stroke:#000000;stroke-width:0.216;stroke-miterlimit:22.9256;}
	.st4{fill-rule:evenodd;clip-rule:evenodd;fill:#006940;}
	.st5{fill:none;stroke:#006940;stroke-width:0.216;stroke-miterlimit:22.9256;}
	.st6{fill-rule:evenodd;clip-rule:evenodd;fill:#FEC057;}
	.st7{fill-rule:evenodd;clip-rule:evenodd;fill:#004785;}
	.st8{fill:none;stroke:#004785;stroke-width:0.216;stroke-miterlimit:22.9256;}
	.st9{fill-rule:evenodd;clip-rule:evenodd;fill:#EA1D28;}
	.st10{fill:none;stroke:#EA1D28;stroke-width:0.216;stroke-miterlimit:22.9256;}
</style>
<g>
	<g>
		<path class="st0" d="M51.1,25.6c-2.9-2.3-5.4-6.7-5.1-9.8C46.6,6.6,58.1,0.1,69,0.5c20,0.8,26.6,13.2,15.7,23.4
			c1.1-0.5,4.7-0.3,5.7-0.9c15.4-9.1,31.4-19.2,43.2-22.4c9.3-2.5,12.1,6.3,12.9,8.9c0.7,2.1-0.8,6.8-2.7,9.3
			c-3.2,4.1-9.6,4.5-14,7.1c-11.1,4.5-25.7,10.2-34.1,20.6c10.9-3.4,15.8-9.7,23.8-1c1,1.1,4.9,7.5,1.4,13.2
			c-0.4,0.7,2.2,3.4,3.2,6.6c8.9,29.7,9.3,46.3-2.8,78c-14.3,0-42.7,0-60,0c-6.5,0-9.8-2-12.2-4.1c-1.5-1.3-2.9-2.7-4.1-4.9
			c-1.4-2.4-1.5-5.9-2.9-8.2c-5.5-9.6-9.8-21.3-13.4-35.2C23.9,72.8,19.9,52,18.6,37C10.9,29.7,3.6,22.8,0.7,15.5
			C-2.9,6.4,10.3-4,17.6,2.7c9.1,8.4,9.2,15,14.9,17.4C41.5,24,43,23.8,51.1,25.6z"/>
		<path class="st1" d="M51.1,25.6c-2.9-2.3-5.4-6.7-5.1-9.8C46.6,6.6,58.1,0.1,69,0.5c20,0.8,26.6,13.2,15.7,23.4
			c1.1-0.5,4.7-0.3,5.7-0.9c15.4-9.1,31.4-19.2,43.2-22.4c9.3-2.5,12.1,6.3,12.9,8.9c0.7,2.1-0.8,6.8-2.7,9.3
			c-3.2,4.1-9.6,4.5-14,7.1c-11.1,4.5-25.7,10.2-34.1,20.6c10.9-3.4,15.8-9.7,23.8-1c1,1.1,4.9,7.5,1.4,13.2
			c-0.4,0.7,2.2,3.4,3.2,6.6c8.9,29.7,9.3,46.3-2.8,78c-14.3,0-42.7,0-60,0c-6.5,0-9.8-2-12.2-4.1c-1.5-1.3-2.9-2.7-4.1-4.9
			c-1.4-2.4-1.5-5.9-2.9-8.2c-5.5-9.6-9.8-21.3-13.4-35.2C23.9,72.8,19.9,52,18.6,37C10.9,29.7,3.6,22.8,0.7,15.5
			C-2.9,6.4,10.3-4,17.6,2.7c9.1,8.4,9.2,15,14.9,17.4C41.5,24,43,23.8,51.1,25.6z"/>
		<path class="st2" d="M69.7,4C79.8,4,87.3,9,86.3,15.1c-1,6.2-10,11.2-20.1,11.3c-10.1,0.1-17.5-4.9-16.6-11.1
			C50.6,9.2,59.7,4.1,69.7,4z"/>
		<path class="st3" d="M69.7,4C79.8,4,87.3,9,86.3,15.1c-1,6.2-10,11.2-20.1,11.3c-10.1,0.1-17.5-4.9-16.6-11.1
			C50.6,9.2,59.7,4.1,69.7,4z"/>
		<path class="st4" d="M22,11.5c-2.2-3.3-4.6-5.7-7.1-6.6C6.8,2.1-0.8,11.3,6.5,20c7.2,8.7,35,28.6,57,29.2c0.7,0,1.3-3.6,0.1-4.1
			C31.9,31.7,27,18.9,22,11.5z"/>
		<path class="st5" d="M22,11.5c-2.2-3.3-4.6-5.7-7.1-6.6C6.8,2.1-0.8,11.3,6.5,20c7.2,8.7,35,28.6,57,29.2c0.7,0,1.3-3.6,0.1-4.1
			C31.9,31.7,27,18.9,22,11.5z"/>
		<path class="st6" d="M40.2,25.6C45,31,55.8,37.1,69.9,41.3c4.6-4.7,9.6-9,14.6-13.9c0.2-0.2,0.5-0.6,0.7-1c0.1-0.1,0-0.2-0.1-0.3
			c0,0-10.3,9.2-39.2,0.9C43.6,26.4,39.3,24.5,40.2,25.6"/>
		<path class="st7" d="M22.9,39.7c7.8,6.5,28.4,14.8,42.9,13.9c0.7,15.8,16.9,14.2,25.6,11.7c-17.9,16-35.1,32.5-48.3,57.3
			C31.9,98.7,26.3,68.8,22.9,39.7z"/>
		<path class="st8" d="M22.9,39.7c7.8,6.5,28.4,14.8,42.9,13.9c0.7,15.8,16.9,14.2,25.6,11.7c-17.9,16-35.1,32.5-48.3,57.3
			C31.9,98.7,26.3,68.8,22.9,39.7z"/>
		<path class="st9" d="M119.6,63.5c-16.8,12.8-34.7,34.2-47.8,52.1c9.5-5.9,15-7.4,20.7-1.4c5.2,11.2-16.1,21.9-20.7,26.2
			c15.6,0,31.3,0,46.9,0C127.1,119.3,132.6,94,119.6,63.5z"/>
		<path class="st10" d="M119.6,63.5c-16.8,12.8-34.7,34.2-47.8,52.1c9.5-5.9,15-7.4,20.7-1.4c5.2,11.2-16.1,21.9-20.7,26.2
			c15.6,0,31.3,0,46.9,0C127.1,119.3,132.6,94,119.6,63.5z"/>
		<path class="st4" d="M72.4,48.7c-1.3,3.5-0.4,8.1,2.1,10.9c5,5.5,25-2.6,29.8-2.5c1,0,1.4,1.5,0.6,2.2
			c-9.9,8.3-40.9,32.1-56.7,64.5c-3.4,8.1,2.2,15.2,7.6,15.9c9.3,0.5,28.9-13.1,31.9-18.6c1.6-1.5-0.8-6.2-4.6-5.1
			c-8.9,2.8-16.5,9.8-20.1,7.9c-2-5.8,12.1-20.4,16-25.3c13.3-15.1,29.1-31,37.5-38.7c5-4.6,1.9-14.2-5.5-14.4
			c-5.4-0.1-14.7,4.3-25.2,6.9c-1,0.3-2-1.2-1.6-2.3c11-12,29.6-22.7,50.5-29.6c4.8-2.2,7.8-2.7,9.1-8.1c1-5.8-4.3-10.4-8.5-9
			C107.3,12.4,77,36.4,72.4,48.7z"/>
		<path class="st5" d="M72.4,48.7c-1.3,3.5-0.4,8.1,2.1,10.9c5,5.5,25-2.6,29.8-2.5c1,0,1.4,1.5,0.6,2.2
			c-9.9,8.3-40.9,32.1-56.7,64.5c-3.4,8.1,2.2,15.2,7.6,15.9c9.3,0.5,28.9-13.1,31.9-18.6c1.6-1.5-0.8-6.2-4.6-5.1
			c-8.9,2.8-16.5,9.8-20.1,7.9c-2-5.8,12.1-20.4,16-25.3c13.3-15.1,29.1-31,37.5-38.7c5-4.6,1.9-14.2-5.5-14.4
			c-5.4-0.1-14.7,4.3-25.2,6.9c-1,0.3-2-1.2-1.6-2.3c11-12,29.6-22.7,50.5-29.6c4.8-2.2,7.8-2.7,9.1-8.1c1-5.8-4.3-10.4-8.5-9
			C107.3,12.4,77,36.4,72.4,48.7z"/>
		<path d="M274.4,73.2h3.6v-1.9c0-2.1,0.2-3.6,0.7-4.6c0.4-1,1.2-1.8,2.4-2.5c1.2-0.6,2.7-1,4.5-1c1.9,0,3.7,0.3,5.4,0.8l-0.9,4.5
			c-1-0.3-2-0.4-3-0.4c-0.9,0-1.6,0.2-2,0.7c-0.4,0.4-0.6,1.3-0.6,2.5v1.7h4.9v5.1h-4.9v19.5H278V78.3h-3.6V73.2z M253.4,85.5
			c0,2.4,0.6,4.3,1.7,5.6c1.2,1.3,2.6,1.9,4.3,1.9c1.7,0,3.1-0.6,4.3-1.9c1.2-1.3,1.7-3.2,1.7-5.7c0-2.4-0.6-4.3-1.7-5.6
			c-1.1-1.3-2.6-1.9-4.3-1.9c-1.7,0-3.1,0.6-4.3,1.9C254,81.2,253.4,83.1,253.4,85.5z M246.7,85.1c0-2.2,0.5-4.3,1.6-6.3
			c1.1-2,2.6-3.6,4.5-4.6c2-1.1,4.1-1.6,6.5-1.6c3.7,0,6.8,1.2,9.1,3.6c2.4,2.4,3.6,5.5,3.6,9.2c0,3.7-1.2,6.8-3.6,9.3
			c-2.4,2.5-5.4,3.7-9.1,3.7c-2.3,0-4.4-0.5-6.5-1.5c-2-1-3.6-2.5-4.7-4.5C247.3,90.4,246.7,88,246.7,85.1z M205.6,73.2h6.9
			l5.9,17.5l5.7-17.5h6.7l-8.7,23.7l-1.6,4.3c-0.6,1.4-1.1,2.5-1.6,3.3c-0.5,0.8-1.1,1.4-1.8,1.8c-0.7,0.5-1.5,0.8-2.5,1.1
			c-1,0.3-2.1,0.4-3.3,0.4c-1.2,0-2.5-0.1-3.7-0.4l-0.6-5.1c1,0.2,1.9,0.3,2.8,0.3c1.5,0,2.6-0.4,3.4-1.3c0.7-0.9,1.3-2,1.7-3.4
			L205.6,73.2z M204.1,73.2v5.2h-4.4v9.9c0,2,0,3.2,0.1,3.5c0.1,0.3,0.3,0.6,0.6,0.8c0.3,0.2,0.7,0.3,1.1,0.3c0.6,0,1.5-0.2,2.6-0.6
			l0.6,5c-1.5,0.6-3.2,1-5.1,1c-1.2,0-2.2-0.2-3.2-0.6c-0.9-0.4-1.6-0.9-2.1-1.5c-0.4-0.6-0.7-1.5-0.9-2.5c-0.1-0.8-0.2-2.3-0.2-4.6
			V78.4h-3v-5.2h3v-4.9l6.5-3.8v8.7H204.1z M179.7,97.8V73.2h6.5v24.6H179.7z M179.7,69.9v-6h6.5v6H179.7z M167.2,85.3l6.6,2.1
			c-1,3.7-2.7,6.5-5.1,8.3c-2.4,1.8-5.4,2.7-9,2.7c-4.5,0-8.2-1.5-11.1-4.6c-2.9-3.1-4.4-7.3-4.4-12.6c0-5.7,1.5-10,4.4-13.2
			c2.9-3.1,6.8-4.7,11.5-4.7c4.2,0,7.5,1.2,10.1,3.7c1.5,1.4,2.7,3.5,3.5,6.3l-6.8,1.6c-0.4-1.8-1.2-3.2-2.5-4.2
			c-1.3-1-2.8-1.5-4.6-1.5c-2.5,0-4.6,0.9-6.1,2.7c-1.6,1.8-2.3,4.7-2.3,8.8c0,4.3,0.8,7.4,2.3,9.2c1.5,1.8,3.5,2.7,6,2.7
			c1.8,0,3.4-0.6,4.7-1.7C165.7,89.6,166.6,87.8,167.2,85.3z"/>
		<path d="M378.9,141v-24.6h6.6V141H378.9z M378.9,113.1v-6h6.6v6H378.9z M372.2,141h-6.6v-12.6c0-2.7-0.1-4.4-0.4-5.2
			c-0.3-0.8-0.7-1.4-1.4-1.8c-0.6-0.4-1.4-0.6-2.3-0.6c-1.1,0-2.2,0.3-3.1,0.9c-0.9,0.6-1.5,1.4-1.9,2.5s-0.5,2.9-0.5,5.7V141h-6.6
			v-24.6h6.1v3.6c2.2-2.8,4.9-4.2,8.2-4.2c1.4,0,2.8,0.3,4,0.8c1.2,0.5,2.1,1.2,2.7,2c0.6,0.8,1,1.7,1.3,2.7c0.2,1,0.4,2.5,0.4,4.4
			V141z M337.7,126.6c0-1.9-0.5-3.3-1.5-4.3c-0.9-1-2.1-1.5-3.4-1.5c-1.4,0-2.6,0.5-3.6,1.6c-0.9,1-1.4,2.4-1.4,4.2H337.7z
			 M337.3,133.2l6.6,1.1c-0.8,2.4-2.2,4.2-4,5.4c-1.8,1.2-4.1,1.9-6.8,1.9c-4.3,0-7.5-1.4-9.6-4.2c-1.6-2.2-2.5-5.1-2.5-8.5
			c0-4.1,1.1-7.3,3.2-9.6c2.2-2.3,4.9-3.5,8.2-3.5c3.7,0,6.6,1.2,8.8,3.6c2.1,2.4,3.2,6.1,3.1,11.1h-16.5c0,1.9,0.6,3.4,1.6,4.5
			c1,1.1,2.3,1.6,3.8,1.6c1,0,1.9-0.3,2.6-0.8C336.4,135.3,336.9,134.4,337.3,133.2z M309.5,141v-34h6.6v34H309.5z M296.6,141v-3.7
			c-0.9,1.3-2.1,2.3-3.6,3.1c-1.5,0.8-3,1.1-4.7,1.1c-1.7,0-3.2-0.4-4.5-1.1c-1.3-0.7-2.3-1.7-2.9-3.1c-0.6-1.3-0.9-3.1-0.9-5.4
			v-15.6h6.6v11.3c0,3.5,0.1,5.6,0.4,6.4c0.2,0.8,0.7,1.4,1.3,1.9c0.6,0.5,1.5,0.7,2.4,0.7c1.1,0,2.1-0.3,3-0.9
			c0.9-0.6,1.5-1.4,1.8-2.3c0.3-0.9,0.5-3.1,0.5-6.6v-10.4h6.6V141H296.6z M257.5,107.1v12.5c2.1-2.5,4.7-3.7,7.6-3.7
			c1.5,0,2.9,0.3,4.1,0.8c1.2,0.6,2.1,1.3,2.8,2.1c0.6,0.9,1,1.8,1.3,2.9c0.2,1,0.3,2.7,0.3,4.9V141H267v-13c0-2.6-0.1-4.2-0.4-4.9
			c-0.3-0.7-0.7-1.2-1.3-1.7c-0.6-0.4-1.4-0.6-2.4-0.6c-1.1,0-2.1,0.3-2.9,0.8c-0.9,0.5-1.5,1.3-1.9,2.4c-0.4,1.1-0.6,2.6-0.6,4.7
			V141h-6.6v-34H257.5z M238.6,141H232v-24.6h6.1v3.5c1-1.7,2-2.7,2.8-3.3c0.8-0.5,1.8-0.8,2.8-0.8c1.5,0,2.9,0.4,4.3,1.2l-2,5.7
			c-1.1-0.7-2.1-1.1-3.1-1.1c-0.9,0-1.7,0.2-2.3,0.8c-0.6,0.5-1.1,1.4-1.5,2.7c-0.4,1.3-0.6,4.1-0.6,8.2V141z M219.3,141v-3.7
			c-0.9,1.3-2.1,2.3-3.6,3.1c-1.5,0.8-3,1.1-4.7,1.1c-1.7,0-3.2-0.4-4.5-1.1c-1.3-0.7-2.3-1.7-2.9-3.1c-0.6-1.3-0.9-3.1-0.9-5.4
			v-15.6h6.6v11.3c0,3.5,0.1,5.6,0.4,6.4c0.2,0.8,0.7,1.4,1.3,1.9c0.6,0.5,1.5,0.7,2.4,0.7c1.1,0,2.1-0.3,3-0.9
			c0.9-0.6,1.5-1.4,1.8-2.3c0.3-0.9,0.5-3.1,0.5-6.6v-10.4h6.6V141H219.3z M176,141v-34h6.6v18l7.7-8.7h8.1l-8.5,9L199,141h-7.1
			l-6.3-11l-3.1,3.2v7.9H176z M144.3,141v-34h25.5v5.7h-18.5v7.5h17.2v5.7h-17.2v9.2h19.2v5.7H144.3z"/>
	</g>
</g>
</svg>
