<?xml version="1.0" encoding="utf-8"?>
<!-- Generator: Adobe Illustrator 19.0.1, SVG Export Plug-In . SVG Version: 6.00 Build 0)  -->
<svg version="1.1" id="Layer_1" xmlns="http://www.w3.org/2000/svg" xmlns:xlink="http://www.w3.org/1999/xlink" x="0px" y="0px"
	 viewBox="0 0 604.6 580.1" style="enable-background:new 0 0 604.6 580.1;" xml:space="preserve">
<style type="text/css">
	.st0{fill:#231F20;}
	.st1{fill:#FFE400;}
	.st2{fill:#A6C896;}
	.st3{fill:#C8DBBC;}
	.st4{fill:#141819;}
	.st5{fill:#4DA346;}
	.st6{fill:#85B874;}
	.st7{fill:#050508;}
</style>
<g>
	<g>
		<path class="st0" d="M134.3,185.4l-3.4,0.1c0-0.2,0.8-5.4,6.4-11.1c4.3-4.4,7.4-4.8,7.6-4.9l0,3.8c0,0-2,0.9-5.1,3.8
			C135.1,181.5,134.4,184.7,134.3,185.4z"/>
	</g>
	<polygon class="st0" points="141.5,179.1 144.5,177.3 144.5,202 141.5,201.8 	"/>
	<polygon class="st0" points="150.1,168.5 150.1,201.6 152.5,201.6 152.5,168 	"/>
	<polygon class="st0" points="159.4,169 159.4,203 169.6,203.9 169.6,169.7 162.7,170.8 	"/>
	<polygon class="st0" points="136.9,186.1 135.4,189.1 135.4,201.1 136.9,201.1 	"/>
	<polygon class="st0" points="157.2,147 157.2,135 160.6,136 160.6,128.4 165.9,135.1 165.9,151.2 	"/>
	<path class="st0" d="M181.3,36.1c0.9-0.7,1.4-1.6,1.4-2.8c0-1.9-1.6-3.5-3.6-3.5c-2,0-3.7,1.6-3.7,3.5c0,1.1,0.6,2.1,1.4,2.7
		c-0.1,0.2-0.2,0.4-0.3,0.7c-0.4,1.1,1.2,1.1,1.1,1.3c-0.1,0.2-0.4,2.4-0.3,4.5c0,2.1,0.8,1.4,1,2.5c0.3,1-1,3.6-0.9,4.6
		c0.1,1,1.6,0.5,1.6,0.3c0-0.2,1.6-3.2,2.3-4.2c0.7-1-0.1-3.1-0.6-4.5c-0.5-1.4-0.6-2.8-0.6-2.8s2-0.4,2.4-1
		C182.7,37.1,181.9,36.5,181.3,36.1z"/>
	<g>
		<path class="st0" d="M221.5,160.4l-0.6-0.3c-0.1,0-8.1-4.1-23.2-6.7c-15.1-2.6-31.3,1.4-31.5,1.5l-0.9,0.2l-6.6-5.8l-19.8,5.8
			l-4-3.1l24.7-6.8l6.7,5.9c3.8-0.9,18.2-3.6,32.1-1.3c13.5,2.3,21.4,5.7,23.6,6.7l15-3.8l0.9,3.6L221.5,160.4z"/>
	</g>
	<g>
		<path class="st0" d="M221.3,173.1l-0.6-0.2c-0.2-0.1-18.1-5.6-31.9-7c-13.7-1.4-25.7,1.4-25.8,1.4l-0.8,0.2l-5.6-3.6l-14,3.5
			l-0.1-3.6l14.7-3.9l5.7,3.7c3-0.6,13.8-2.6,26.3-1.3c13,1.3,28.9,6,32.1,7l9.4-3l4.2,3l-2.2,3l-2.6-1.9L221.3,173.1z"/>
	</g>
	<polygon class="st0" points="187.3,168.8 202,171.4 202,206.2 187.3,204.7 	"/>
	<polygon class="st0" points="174.3,168.3 180.7,168.3 180.7,204.5 174.3,204 	"/>
	<polygon class="st0" points="208.6,172.7 212,173.7 212,192.3 208.6,196.4 	"/>
	<polygon class="st0" points="189.5,138 189.5,146.1 198,146.7 198,138.4 	"/>
	<polygon class="st0" points="218.8,175.9 218.6,183.5 225.9,174.9 221.8,176.1 	"/>
	<g>
		<path class="st0" d="M138.1,136.8l0.9-4.3c0.9-0.5,22.9-12.1,50.7-9.3c22.2,2.3,37,9.6,37.3,9.8l0.3,3.9
			c-0.1-0.1-19.2-7.9-38.1-10C162.8,123.3,138.3,136.7,138.1,136.8z"/>
	</g>
	<rect x="175.5" y="67.3" class="st0" width="2.9" height="12.2"/>
	<rect x="180.7" y="67.3" class="st0" width="2.9" height="12.2"/>
	<path class="st0" d="M238.7,154l-0.5-5.4l-5.2-7.2l-3.5-2.3c0,0,0.7-4.3-2.2-6.2c-0.1-0.1-0.2-0.3-0.2-0.5
		c-0.3-7.5-5.9-21-14.6-30.1c-7.1-7.4-17.7-12.3-21.1-14v-3.4l-2.2-2.9l0.3-12.5c0.9-1.2,2.6-4,1.5-7.4c-0.9-3-3.3-4.9-4.6-5.7
		l-0.2-1.4c-0.1-1.8-1.7-5.2-6.9-5.2c-5.1,0-6.9,3.5-7.2,5.3l0,2.5c-0.5,0.6-1.5,1.7-3.1,3.6c-2.7,3.2-1,6.7,0.6,8.6l-0.2,12.8
		l-1.3,2.4v4.1c-2.9,1.3-10.5,5.3-19.7,14.5c-8.8,8.8-11.5,21.5-12.9,28.3c-0.3,1.4-0.6,2.9-0.8,3.4c-1.3,1.7-1.5,3.8-1.5,4.9
		c-0.4,0.7-1.1,2-2.5,4.8c-2.1,4.1-0.6,7,0.4,8.3l0.2,7.7c-0.8,0.8-2.4,2.5-5,5.8c-3.1,4-2.3,8.7-1.5,11.3l-5.7,1.9v7.4l0.2,0.2
		l4.3,2.6v10.5h3.7V188l-4.9-3.2l-0.1-2.4l7.6-2.3l-0.9-1.9c0-0.1-2.7-5.5,0.3-9.4c3.5-4.5,5.1-5.9,5.1-5.9l0.7-0.6l4.2-3.1
		l-0.1-1.9l-4.3,2.1l-0.2-7.9l-0.6-0.5c0,0-1.6-1.5-0.1-4.5c2-4,2.5-4.9,2.5-4.9l0.4-0.5l-0.1-0.7c0-0.4-0.1-2.1,0.7-2.9
		c0.6-0.8,0.8-1.8,1.5-4.9c1.3-6.5,3.8-18.4,11.8-26.5c10.9-10.8,19.4-14.1,19.5-14.1l1.2-0.4v-5.7l1.3-2.4l0.3-15.3l-0.6-0.5
		c-0.1-0.1-2.4-2.3-0.9-4.2c2.5-3,3.4-3.9,3.4-3.9l0.5-0.6v-3.5c0.1-0.4,0.7-2.1,3.5-2.1c2.8,0,3.2,1.4,3.3,1.9l0.4,3.5l0.9,0.4
		c0,0,2.8,1.3,3.6,4c0.7,2.4-1.1,4.3-1.2,4.4l-0.5,0.5l-0.3,15.1l2.2,3v5l1.3,0.4c0.1,0,13.2,5.2,20.6,13.3
		c13.7,15,13.2,28.1,13.3,28.2c0,0-2-0.5-2-0.1l2.6,2.4c0,0,3.6,1.4,2.5,6.1c0-0.1,3,1.8,3,1.8l5.6,7.4l0.6,5.3l4.8,4.8l2.6-2.6
		L238.7,154z"/>
	<g>
		<path class="st0" d="M158.3,123l-5.3,1.5c0.1-0.4,0.7-12.4,8.8-22c5.4-6.3,12.3-9.4,12.5-9.5h3.1c0,0-7.1,4.5-12.7,12.7
			C158.9,114,158.3,122.9,158.3,123z"/>
	</g>
	<g>
		<path class="st0" d="M201.3,123l5.3,1.5c-0.1-0.4-0.7-12.4-8.8-22c-5.4-6.3-12.4-9.4-12.5-9.6h-3.1c0,0.1,7.1,4.5,12.7,12.7
			C200.6,114,201.2,122.9,201.3,123z"/>
	</g>
	<g>
		<polygon class="st0" points="252.5,131.4 255.8,132 257.5,129.9 287.9,134 287.9,131 256.9,126.5 255.6,128.7 252.2,128.2 
			245.9,135.6 245.8,139.1 		"/>
		<polygon class="st0" points="287.9,138.5 287.9,135.9 258.4,131.9 256.5,134.2 253.1,133.6 240.7,148.6 240.7,152.3 241.8,152.9 
			248.9,143.4 293.1,140.4 293.5,139.3 		"/>
	</g>
	<polygon class="st0" points="462.8,197.5 267.7,176.5 205.2,249.8 205.2,255.2 268.8,181.6 463.1,201.9 462.8,199.8 	"/>
	<polygon class="st0" points="215,257.5 222.8,249.3 222.8,275.4 215,281 	"/>
	<path class="st1" d="M105,53.2c0,29.4-23.4,53.2-52.3,53.2c-28.9,0-52.3-23.8-52.3-53.2C0.4,23.8,23.8,0,52.7,0
		C81.6,0,105,23.8,105,53.2"/>
	<path class="st2" d="M465.9,377.6c0,0-64.5,16.6-129.3,11.1c0,0,98,32,268,34.8C604.6,423.5,499.4,407.6,465.9,377.6"/>
	<path class="st3" d="M213.5,333.6c-126-79.7-98.1-205.8-98.3-205.7c-6.2,4-19.3,8.8-26.7,9C83,185.9,92.7,281.4,213.5,333.6z"/>
	<path class="st3" d="M322,390.4c-124.4-5.8-213.9-52.5-271.1-135.5c109.1,224,459.6,170.6,459.6,170.6
		C418.3,415.8,367.5,405.8,322,390.4z"/>
	<g>
		<path class="st4" d="M33.1,443.3c-1.1,0.6-2.3,1.1-3.6,1.5c-1.3,0.4-2.6,0.8-3.8,1c-1.3,0.3-2.4,0.4-3.5,0.6
			c-1.1,0.1-1.9,0.2-2.6,0.2c-2.9,0-5.5-0.5-7.9-1.5c-2.4-1-4.4-2.3-6.1-4c-1.7-1.7-3-3.7-4-6c-0.9-2.4-1.4-4.9-1.4-7.7
			c0-3,0.5-5.7,1.6-8c1.1-2.3,2.5-4.3,4.4-5.9c1.9-1.6,4.1-2.8,6.7-3.6c2.6-0.8,5.4-1.2,8.4-1.2c1.7,0,3.3,0.1,4.9,0.3
			c1.5,0.2,3,0.5,4.5,0.8c0.2,0.1,0.4,0.1,0.4,0.3c0.1,0.1,0.2,0.3,0.2,0.4c0,0.3,0,0.7,0.1,1.1c0,0.5,0.1,0.9,0.1,1.5
			c0,0.5,0.1,1.1,0.1,1.6c0,0.5,0,1,0.1,1.5c0,0.5,0,0.9,0.1,1.2c0,0.3,0,0.5,0,0.6l-1.5,0.2c-0.1-1.3-0.5-2.4-1.2-3.3
			c-0.6-0.9-1.4-1.6-2.4-2.2c-0.9-0.6-2-1-3.1-1.2c-1.1-0.2-2.3-0.4-3.4-0.4c-2.3,0-4.3,0.4-5.9,1.1c-1.7,0.7-3.1,1.8-4.2,3.1
			c-1.1,1.3-1.9,2.9-2.5,4.7c-0.5,1.8-0.8,3.7-0.8,5.9c0,2.5,0.3,4.7,1,6.9c0.7,2.1,1.7,4,3,5.5c1.4,1.6,3.1,2.8,5.1,3.7
			c2,0.9,4.4,1.3,7.1,1.3c1.6,0,3.2-0.2,4.8-0.5c1.5-0.4,3-0.8,4.6-1.4L33.1,443.3z"/>
		<path class="st4" d="M35.6,409.9c1.1-0.2,2.2-0.4,3.2-0.5c1-0.1,1.9-0.3,2.7-0.4c0.8-0.1,1.4-0.2,1.9-0.2c0.5-0.1,0.9-0.1,1-0.1
			c0.7,0,1,0.3,1,1v35c0,0.5-0.3,0.8-0.8,0.9c-0.4,0.1-0.7,0.1-1.2,0.2c-0.4,0.1-0.8,0.1-1.3,0.1c-0.4,0-0.8,0.1-1.1,0.1
			c-0.3,0-0.6,0-0.8,0c-0.5,0-0.7-0.2-0.7-0.8v-30.8c0-0.6-0.1-1.1-0.2-1.4c-0.1-0.3-0.3-0.6-0.5-0.8c-0.2-0.2-0.5-0.4-0.8-0.4
			c-0.3-0.1-0.6-0.2-1-0.2c-0.4,0-0.9,0-1.4,0.1L35.6,409.9z"/>
		<path class="st4" d="M59.9,412c-1.3,0-2.5,0-3.4,0.1c-0.9,0.1-1.6,0.3-2.2,0.7c-0.6,0.4-1.1,1.1-1.5,1.9c-0.4,0.9-0.7,2.1-1.1,3.7
			l-1.6-0.2c0-0.1,0-0.3,0-0.7c0-0.4,0-0.8,0-1.4c0-0.5,0.1-1.1,0.1-1.7c0-0.6,0.1-1.2,0.1-1.8c0-0.6,0.1-1.2,0.2-1.6
			c0-0.5,0.1-0.9,0.1-1.2c0-0.3,0.2-0.4,0.6-0.4c1.9,0,3.7,0.1,5.4,0.1c1.7,0,3.3,0,4.8,0h10.4c1.5,0,3.1,0,4.8,0
			c1.8,0,3.6-0.1,5.5-0.1c0.3,0,0.5,0.2,0.5,0.4c0,0.3,0.1,0.7,0.1,1.2c0,0.5,0.1,1,0.1,1.6c0,0.6,0.1,1.2,0.1,1.8
			c0,0.6,0,1.2,0,1.7c0,0.5,0,1,0,1.4c0,0.4,0,0.6,0,0.7l-1.6,0.2c-0.4-1.6-0.7-2.8-1.1-3.7c-0.4-0.8-0.9-1.5-1.4-1.9
			c-0.6-0.4-1.3-0.6-2.1-0.7c-0.9-0.1-2-0.1-3.4-0.1h-4v32.7c0,0.5-0.3,0.8-0.8,0.9c-0.3,0.1-0.7,0.1-1.2,0.2
			c-0.4,0.1-0.9,0.1-1.3,0.1c-0.4,0-0.8,0.1-1.1,0.1c-0.4,0-0.6,0-0.8,0c-0.5,0-0.8-0.2-0.8-0.8V412H59.9z"/>
		<path class="st4" d="M91.2,408.8c0.3,0,0.5,0.1,0.7,0.3c0.2,0.2,0.4,0.5,0.6,0.8l8.9,15.9l7.6-15.4c0.1-0.3,0.3-0.5,0.4-0.6
			c0.1-0.2,0.3-0.3,0.6-0.3c0.3-0.1,0.6-0.2,1-0.2c0.3,0,0.6-0.1,1-0.1c0.3,0,0.6-0.1,0.9-0.1c0.2,0,0.5,0,0.6,0
			c0.4,0,0.6,0.1,0.6,0.4c0,0.1,0,0.2-0.1,0.2c0,0.1-0.1,0.2-0.1,0.3l-11.2,18.8v16c0,0.5-0.3,0.8-0.8,0.9c-0.3,0.1-0.7,0.1-1.2,0.2
			c-0.4,0.1-0.8,0.1-1.2,0.1c-0.4,0-0.8,0.1-1.1,0.1c-0.3,0-0.6,0-0.8,0c-0.5,0-0.8-0.2-0.8-0.8v-15.9L88,414c-0.5-0.9-1-1.6-1.5-2
			c-0.4-0.4-1-0.5-1.7-0.5c-0.2,0-0.3,0-0.5,0c-0.2,0-0.4,0-0.7,0.1l-0.2-1.7c0.9-0.2,1.8-0.3,2.7-0.5c0.9-0.1,1.7-0.2,2.4-0.3
			c0.7-0.1,1.3-0.2,1.8-0.2C90.7,408.8,91,408.8,91.2,408.8"/>
		<path class="st4" d="M152.4,408.5c2.7,0,5.1,0.4,7.3,1.3c2.2,0.8,4,2,5.5,3.6c1.6,1.6,2.7,3.5,3.6,5.8c0.8,2.3,1.3,4.9,1.3,7.7
			c0,3.2-0.5,6-1.4,8.4c-0.9,2.4-2.2,4.4-4,6.1c-1.7,1.7-3.8,2.9-6.2,3.8c-2.4,0.9-5.1,1.3-8.1,1.3c-2.7,0-5.1-0.4-7.3-1.3
			c-2.2-0.9-4-2.1-5.6-3.7c-1.5-1.6-2.7-3.6-3.5-5.9c-0.8-2.3-1.3-4.9-1.3-7.8c0-3.2,0.5-5.9,1.4-8.3c0.9-2.4,2.3-4.4,4-6
			c1.7-1.6,3.8-2.9,6.2-3.7C146.7,409,149.4,408.5,152.4,408.5 M150.8,411.2c-2.1,0-3.8,0.4-5.3,1.3c-1.5,0.8-2.7,1.9-3.6,3.3
			c-0.9,1.4-1.7,3-2.1,4.8c-0.4,1.8-0.6,3.7-0.6,5.6c0,2.2,0.2,4.4,0.7,6.5c0.5,2.1,1.2,4,2.2,5.7c1,1.7,2.3,3,4,4
			c1.7,1,3.6,1.5,5.9,1.5c2,0,3.8-0.4,5.2-1.3c1.5-0.9,2.7-2,3.6-3.4c0.9-1.4,1.6-3,2-4.9c0.4-1.8,0.7-3.7,0.7-5.7
			c0-2.2-0.3-4.3-0.7-6.4c-0.5-2.1-1.2-3.9-2.2-5.6c-1-1.6-2.3-2.9-4-3.9C155.1,411.7,153.1,411.2,150.8,411.2"/>
		<path class="st4" d="M183.3,444.8c0,0.5-0.2,0.8-0.7,0.9c-0.4,0.1-0.8,0.1-1.2,0.2c-0.4,0.1-0.8,0.1-1.2,0.1
			c-0.4,0-0.8,0.1-1.1,0.1c-0.3,0-0.6,0-0.8,0c-0.5,0-0.8-0.2-0.8-0.8v-30.3c0-1-0.2-1.7-0.7-2.1c-0.5-0.4-1.1-0.5-1.8-0.5
			c-0.4,0-0.9,0-1.3,0.1l-0.2-1.8c0.4,0,1.1-0.2,1.9-0.3c0.8-0.1,1.7-0.2,2.6-0.4c0.9-0.1,1.8-0.2,2.6-0.3c0.8-0.1,1.5-0.1,2-0.1
			h11.2c0.7,0,1.4,0,2.2,0c0.8,0,1.6,0,2.6,0c0.3,0,0.5,0.2,0.6,0.5c0,0.3,0.1,0.6,0.1,1.1c0,0.5,0.1,1,0.1,1.6
			c0,0.6,0.1,1.1,0.1,1.7c0,0.6,0.1,1.1,0.1,1.6c0,0.5,0,0.9,0,1.3c0,0.4,0,0.6,0,0.7l-1.5,0.2c-0.4-1.5-0.7-2.6-1.1-3.4
			c-0.4-0.8-0.8-1.4-1.4-1.8c-0.6-0.4-1.3-0.6-2.1-0.7c-0.8-0.1-2-0.1-3.4-0.1h-5.3c-0.3,0-0.6,0-0.8,0c-0.2,0-0.3,0.1-0.4,0.1
			c-0.1,0.1-0.1,0.2-0.1,0.4c0,0.1,0,0.4,0,0.6v13.9c1.7-0.1,3.3-0.2,4.7-0.2c1.4-0.1,2.6-0.2,3.6-0.2c1,0,1.8-0.1,2.4-0.1
			c0.6,0,1,0,1.2,0c0.6,0,0.9,0.3,0.9,0.9c0,0.4,0,0.8-0.1,1.2c0,0.4-0.1,0.9-0.2,1.3l-12.5-0.4V444.8z"/>
	</g>
	<g>
		<path class="st4" d="M17.5,473.8c-2.4,0-4.5,0-6.1,0.2c-1.6,0.1-2.9,0.6-4,1.3c-1,0.8-1.9,1.9-2.6,3.5c-0.7,1.6-1.4,3.8-2,6.6
			L0,485.1c0-0.1,0-0.5,0-1.2c0-0.7,0.1-1.5,0.1-2.4c0.1-1,0.1-2,0.2-3.1c0-1.1,0.2-2.2,0.2-3.3c0.1-1.1,0.2-2,0.2-3
			c0.1-0.9,0.2-1.7,0.2-2.2c0-0.6,0.4-0.9,1-0.9c3.4,0.1,6.7,0.2,9.8,0.2c3.1,0,6,0.1,8.6,0.1h18.8c2.6,0,5.5,0,8.7-0.1
			c3.2,0,6.5-0.1,9.9-0.2c0.5,0,0.8,0.3,0.9,0.9c0.1,0.5,0.1,1.2,0.2,2.2c0.1,0.9,0.1,1.9,0.2,3c0.1,1.1,0.1,2.1,0.2,3.3
			c0,1.1,0.1,2.1,0.1,3.1c0,0.9,0.1,1.7,0.1,2.4c0,0.7,0,1.1,0,1.2l-2.8,0.3c-0.6-2.8-1.3-5-2-6.6c-0.6-1.6-1.5-2.7-2.5-3.5
			c-1-0.7-2.3-1.1-3.9-1.3c-1.6-0.1-3.6-0.2-6.1-0.2h-7.2v59c0,0.9-0.4,1.4-1.3,1.6c-0.6,0.1-1.4,0.2-2.1,0.3
			c-0.8,0.1-1.5,0.1-2.3,0.2c-0.7,0.1-1.4,0.1-2,0.1c-0.6,0-1.1,0-1.4,0c-0.9,0-1.4-0.5-1.4-1.4v-59.8H17.5z"/>
		<path class="st4" d="M101.4,484.5c-0.4-2.1-1-3.9-1.8-5.3c-0.8-1.5-1.9-2.7-3.2-3.7c-1.2-1-2.6-1.7-4.2-2.2
			c-1.6-0.5-3.2-0.7-5.1-0.7c-1.8,0-3.5,0.2-5.1,0.6c-1.6,0.4-3,1.1-4.3,2.1c-1.2,0.9-2.2,2.1-3,3.6c-0.7,1.5-1.1,3.2-1.1,5.2
			c0,1.8,0.4,3.4,1.3,4.6c0.9,1.3,2,2.4,3.5,3.4c1.4,0.9,3.1,1.8,5,2.6c1.9,0.7,3.8,1.5,5.9,2.2c2.3,0.9,4.5,1.8,6.8,2.8
			c2.3,1,4.3,2.2,6.1,3.6c1.8,1.4,3.2,3.2,4.3,5.2c1.1,2,1.7,4.5,1.7,7.5c0,2.6-0.4,4.9-1.1,6.9c-0.7,2-1.8,3.7-3,5.2
			c-1.3,1.5-2.8,2.7-4.6,3.7c-1.7,1-3.6,1.8-5.6,2.5c-2,0.6-4.1,1-6.2,1.3c-2.2,0.3-4.3,0.4-6.4,0.4c-2.5,0-5-0.2-7.5-0.4
			c-2.5-0.3-5-0.7-7.5-1.3c-0.3-0.1-0.6-0.2-0.8-0.5c-0.2-0.3-0.3-0.5-0.3-0.8c-0.1-0.8-0.2-1.9-0.3-3.4c-0.1-1.5-0.1-3.1-0.2-4.6
			c-0.1-1.6-0.1-3-0.2-4.3c0-1.3,0-2,0-2.2l2.8-0.3c0.3,2.3,0.8,4.2,1.8,5.8c0.9,1.6,2.1,3,3.5,4.1c1.4,1.1,3,1.9,4.9,2.4
			c1.9,0.5,3.8,0.8,5.9,0.8c1.9,0,3.7-0.2,5.5-0.6c1.8-0.4,3.4-1.1,4.7-2.1c1.4-0.9,2.5-2.1,3.3-3.6c0.8-1.5,1.3-3.3,1.3-5.4
			c0-1.8-0.4-3.3-1.3-4.5c-0.8-1.2-2-2.3-3.4-3.3c-1.5-0.9-3.1-1.8-5-2.6c-1.9-0.8-3.8-1.5-5.8-2.3c-2.3-0.9-4.5-1.9-6.8-2.9
			c-2.3-1-4.3-2.3-6.1-3.7c-1.8-1.4-3.2-3.2-4.3-5.3c-1.1-2.1-1.7-4.6-1.7-7.7c0-3.7,0.7-6.7,2.2-9.2c1.4-2.5,3.4-4.4,5.7-6
			c2.3-1.5,5-2.5,8-3.2c3-0.6,6-0.9,9.2-0.9c2,0,4.3,0.2,6.7,0.5c2.5,0.3,4.8,0.7,6.9,1.2c0.3,0.1,0.6,0.3,0.8,0.5
			c0.2,0.2,0.3,0.5,0.3,0.7c0.1,0.8,0.2,1.9,0.3,3.3c0.1,1.4,0.1,2.8,0.2,4.3c0.1,1.4,0.1,2.7,0.2,3.9c0,1.2,0,1.9,0,2.1
			L101.4,484.5z"/>
		<path class="st4" d="M165,470.8c0-0.9,0.4-1.4,1.3-1.6c0.6-0.1,1.3-0.2,2.1-0.3c0.8-0.1,1.5-0.1,2.3-0.2c0.7-0.1,1.4-0.1,2.1-0.1
			c0.6-0.1,1.1-0.1,1.4-0.1c0.9,0,1.4,0.5,1.4,1.4v62.8c0,0.9-0.5,1.4-1.4,1.6c-0.6,0.1-1.3,0.2-2.1,0.3c-0.8,0.1-1.5,0.1-2.2,0.2
			c-0.7,0.1-1.4,0.1-2,0.1c-0.6,0-1.1,0-1.4,0c-0.9,0-1.3-0.5-1.3-1.4v-32l-32.9,0.4v30.7c0,0.9-0.4,1.4-1.3,1.6
			c-0.7,0.1-1.4,0.2-2.1,0.3c-0.8,0.1-1.5,0.1-2.3,0.2c-0.7,0.1-1.4,0.1-2,0.1c-0.6,0-1.1,0-1.4,0c-0.9,0-1.3-0.5-1.3-1.4V478
			c0-1-0.1-1.9-0.3-2.6c-0.2-0.7-0.5-1.1-0.9-1.5c-0.4-0.4-0.9-0.6-1.4-0.8c-0.5-0.1-1.2-0.2-1.8-0.2c-0.8,0-1.7,0.1-2.5,0.2
			l-0.3-3.1c2-0.4,4-0.7,5.8-1c1.8-0.2,3.4-0.5,4.9-0.6c1.4-0.2,2.6-0.2,3.5-0.3c0.9-0.1,1.5-0.1,1.8-0.1c1.2,0,1.8,0.6,1.8,1.8
			v27.3H165V470.8z"/>
		<path class="st4" d="M265.8,470.9c0.2-0.8,0.9-1.4,1.9-1.7c0.5-0.1,1-0.3,1.6-0.4c0.6-0.1,1.2-0.1,1.8-0.2c0.6,0,1.1-0.1,1.6-0.1
			c0.5,0,0.8,0,1.1,0c0.6,0,1,0.2,1,0.5c0,0.4-0.1,0.7-0.2,1.2l-23.1,63.6c-0.2,0.4-0.3,0.6-0.5,0.8c-0.2,0.1-0.3,0.2-0.5,0.3
			c-0.4,0-0.8,0-1.3,0.1c-0.5,0-1.1,0.1-1.6,0.1c-0.6,0-1.1,0-1.7,0.1c-0.5,0-0.9,0-1.2,0c-0.2,0-0.5-0.1-0.7-0.2
			c-0.2-0.1-0.4-0.4-0.5-0.7l-13.3-41l-14.3,40.6c-0.2,0.4-0.3,0.6-0.4,0.8c-0.2,0.1-0.3,0.2-0.5,0.3c-0.3,0-0.8,0-1.3,0.1
			c-0.5,0-1.1,0.1-1.7,0.1c-0.6,0-1.1,0-1.6,0.1c-0.5,0-1,0-1.3,0c-0.2,0-0.5-0.1-0.7-0.2c-0.2-0.1-0.4-0.4-0.5-0.7l-18.4-57
			c-0.6-1.8-1.4-3-2.3-3.6c-0.9-0.6-2-0.9-3.3-0.9c-0.4,0-0.7,0-1.1,0.1c-0.4,0-0.8,0.1-1.3,0.2l-0.3-3.1c1.6-0.3,3.3-0.6,5-0.9
			c1.7-0.2,3.2-0.4,4.6-0.6c1.4-0.2,2.6-0.3,3.6-0.4c1-0.1,1.6-0.2,1.9-0.2c0.6,0,1,0.2,1.3,0.6c0.3,0.3,0.5,0.8,0.7,1.5l16.6,51.8
			h0.2l12.3-37.1l-4.6-14.2c-0.1-0.4-0.1-0.8,0.1-1c0.2-0.3,0.5-0.5,0.8-0.6c1.3-0.3,2.7-0.5,4.2-0.6c1.5-0.1,2.8-0.2,3.8-0.2
			c0.5,0,0.9,0.1,1.1,0.3c0.2,0.2,0.4,0.5,0.6,1l17.1,53h0.2L265.8,470.9z"/>
		<path class="st4" d="M284.3,510.8l-8.7,23.3c-0.2,0.4-0.5,0.7-1,0.7c-0.7,0.1-1.5,0.1-2.3,0.2c-0.9,0-1.9,0.1-3,0.1
			c-0.6,0-0.9-0.2-0.9-0.6c0-0.1,0-0.2,0-0.3l25.8-61.6l-1.2-3.3c-0.1-0.3-0.1-0.5-0.1-0.6c0-0.6,0.4-0.9,1.1-1
			c0.6-0.1,1.3-0.2,2.1-0.3c0.8-0.1,1.6-0.2,2.4-0.2c0.8-0.1,1.4-0.1,2.1-0.2c0.6,0,1.1,0,1.4,0c0.8,0,1.3,0.4,1.6,1.3l25.2,64.4
			c0.1,0.3,0.2,0.5,0.2,0.7c0,0.6-0.4,1-1.1,1.1c-0.7,0.1-1.4,0.2-2.3,0.3c-0.8,0.1-1.7,0.1-2.5,0.2c-0.8,0.1-1.5,0.1-2.2,0.1
			c-0.7,0-1.2,0-1.5,0c-0.6,0-1.1-0.3-1.3-0.8l-9.2-23.8L284.3,510.8z M286.1,506h21.2l-10.7-27.8L286.1,506z"/>
		<path class="st4" d="M346.2,467.1c0.4,0,0.7,0.1,1,0.4c0.2,0.2,0.5,0.6,0.8,0.9l39,51.5l-1.4-50.3c0-0.4,0.3-0.7,0.9-0.7
			c0.7-0.1,1.6-0.2,2.7-0.3c1.1-0.1,2.2-0.2,3.3-0.2c0.6,0,0.9,0.3,0.9,0.8l-1.4,54.7v10.3c0,0.5-0.3,0.7-0.9,0.7
			c-0.7,0.1-1.4,0.1-2.3,0.2c-0.8,0-1.7,0.1-2.6,0.1c-0.3,0-0.6-0.1-0.8-0.2c-0.2-0.1-0.4-0.3-0.6-0.6l-39.3-51.9l1.4,51.6
			c0,0.5-0.3,0.7-0.9,0.7c-0.7,0.1-1.6,0.2-2.8,0.3c-1.2,0.1-2.2,0.1-3.2,0.1c-0.6,0-0.9-0.3-0.9-0.9l1.4-58.5l-4.6-6.3
			c-0.1-0.1-0.2-0.3-0.2-0.6c0-0.5,0.4-0.8,1-1c0.6-0.1,1.4-0.2,2.3-0.3c0.9-0.1,1.9-0.2,2.8-0.2c1,0,1.8-0.1,2.6-0.2
			C345.3,467.1,345.9,467.1,346.2,467.1"/>
		<path class="st4" d="M420.2,525.6c0,0.9,0,1.6,0.1,2.1c0.1,0.5,0.2,0.9,0.5,1.2c0.2,0.3,0.7,0.5,1.2,0.5c0.6,0.1,1.4,0.1,2.4,0.1
			h7.3c3,0,5.4-0.1,7.3-0.2c1.9-0.1,3.5-0.6,4.8-1.3c1.3-0.7,2.5-1.9,3.5-3.5c1-1.6,2.1-3.8,3.4-6.7l2.8,0.6c0,0.3-0.1,1-0.3,2
			c-0.2,1.1-0.4,2.3-0.6,3.7c-0.3,1.5-0.6,2.9-0.9,4.4c-0.4,1.5-0.7,2.8-1,3.9c-0.5,1.3-1.4,1.9-2.8,1.9c-1.4,0-3.1,0-5,0
			c-1.9,0-4.1,0-6.4-0.1c-2.4,0-4.9,0-7.6-0.1c-2.7,0-5.5,0-8.4,0h-9.4c-0.5,0-0.9-0.2-1.1-0.5c-0.2-0.3-0.3-0.6-0.3-0.9v-53.9
			c0-1.9-0.4-3.2-1.3-3.8c-0.9-0.6-2-0.9-3.2-0.9c-0.8,0-1.6,0.1-2.4,0.2l-0.3-3.1c0.8-0.1,1.9-0.3,3.5-0.6c1.5-0.2,3.1-0.4,4.7-0.7
			c1.6-0.2,3.2-0.4,4.7-0.6c1.5-0.1,2.7-0.2,3.6-0.2h20.5c1.3,0,2.6,0,4,0c1.4,0,2.9-0.1,4.6-0.1c0.6,0,0.9,0.3,1,0.8
			c0,0.5,0.1,1.2,0.2,2.1c0.1,0.9,0.1,1.8,0.1,2.8c0.1,1,0.1,2,0.1,3.1c0.1,1.1,0.1,2,0.1,2.9c0,0.9,0.1,1.7,0.1,2.3
			c0,0.6,0,1,0,1.2l-2.8,0.3c-0.6-2.7-1.3-4.7-1.9-6.2c-0.6-1.5-1.5-2.5-2.5-3.2c-1-0.7-2.3-1.1-3.9-1.2c-1.6-0.1-3.6-0.2-6.1-0.2
			h-9.9c-0.6,0-1.1,0-1.4,0c-0.3,0.1-0.6,0.1-0.7,0.3c-0.2,0.2-0.2,0.4-0.2,0.7c0,0.3,0,0.7,0,1.2v22.7c3.1-0.2,5.9-0.3,8.5-0.4
			c2.6-0.1,4.8-0.3,6.7-0.4c1.9-0.1,3.4-0.2,4.6-0.2c1.2-0.1,1.9-0.1,2.1-0.1c1.1,0,1.6,0.6,1.6,1.7c0,0.7,0,1.4-0.1,2.2
			c-0.1,0.8-0.2,1.6-0.3,2.4l-23.1-0.8V525.6z"/>
	</g>
	<path class="st5" d="M88.3,108.9c-0.2,0.3-80.3,286.7,392.8,261c-5,0.3-430.3,103.2-468.6-263.3C12.5,106.6,53.1,128.3,88.3,108.9"
		/>
	<path class="st6" d="M454,316c0,0-115.2,58.5-254.6,3.5c0,0,84.9,67.9,358.3,42.5c0,0-66.8-5.6-101.4-42.7"/>
	<g>
		<path class="st0" d="M268.9,184.9l-36.8,44.7v94c1.8,0.4,3.6,0.8,5.4,1.2V231l1-0.4c0.4,0.6,1.1,1,1.9,1c0.7,0,1.3-0.3,1.7-0.8
			c-0.1,5.1-0.4,20.7,0,39.6c0.4,15.5,0.8,40.8,0.9,55.6c0.8,0.2,1.5,0.3,2.3,0.5c-0.1-18-0.3-38.1-0.3-48.5
			c-0.1-21.6-0.1-47.8-0.1-47.8s0.8,1.9,2.1,0c0,0,0.3,14.4,0.3,24.8c0,6.1,0.2,43,0.4,72c2.2,0.4,4.3,0.8,6.5,1.2
			c0-15.3,0-42.1-0.4-58.6c-0.3-15-0.8-28.8-1.3-37.8c0.9-0.4,1.4-1.3,1.4-2.3c0-0.2,0-0.4,0-0.5c1.4-0.3,2.5-1.5,2.5-3
			c0-1.7-1.4-3-3-3c-0.1,0-0.1,0-0.1,0h0c-0.3,0-0.8,0.1-1.4,0.2l5.7-6.9c-0.2,6.6-0.4,22.3,0.1,41.1c0.5,20.6,1.2,59.3,1.4,71.7
			c0.8,0.1,1.6,0.3,2.3,0.4c-0.2-20.4-0.6-52.4-0.7-66.6c-0.1-21.6-0.1-47.8-0.1-47.8s1.2,1.9,3,0c0.1,0,0.5,14.4,0.5,24.8
			c0,7.5,0.5,61.3,0.7,90.2c2.1,0.3,4.1,0.7,6.1,1c-0.1-12.8-0.3-52.9-0.7-74.5c-0.4-19.7-1.1-34.5-1.4-40.6
			c0.9-0.4,1.5-1.4,1.5-2.5c0-0.2,0-0.4,0-0.5c1.5-0.3,2.6-1.6,2.6-3.2c0-1.8-1.5-3.3-3.3-3.3c0,0-0.1,0-0.2,0v0
			c-0.6,0-3,0.6-4.4,0.6l4.1-5c0.5,1.3,1.7,2.1,3,2.1c0.9,0,1.8-0.4,2.4-1.1c-0.1,7-0.5,28.7,0.1,54.8c0.6,26.2,1.2,61.8,1.4,73.8
			c1.1,0.2,2.2,0.3,3.3,0.5c-0.2-10.1-1.3-63.7-1.4-83.2c-0.1-21.6-0.2-47.8-0.2-47.8s1.8,1.9,4.7,0c0.1,0,0.8,14.4,0.8,24.8
			c0,9.6,1.2,94.7,1.4,106.9c2.3,0.3,4.5,0.6,6.7,0.8c0-13.2,0-49.9-0.5-76.8c-0.5-25.4-1.4-44.5-1.8-52.3c1.2-0.6,2-1.8,2-3.2
			c0-0.2,0-0.5-0.1-0.7c1.9-0.4,3.4-2.1,3.4-4.1l11.9,1.3c-0.1,0.1-0.2,0.3-0.3,0.4c-0.9,1.2-1.3,1.2-1.5,1.2
			c-1.9,0-3.3,1.6-3.3,3.5c0,2,1.5,3.5,3.3,3.5c0.9,0,1.8-0.4,2.4-1.1c-0.2,7-0.5,28.7,0.1,54.8c0.6,25.6,1.2,61.8,1.4,75.2
			c1,0.1,2,0.1,3,0.2c-0.2-10.3-1.3-63.8-1.4-83.3c-0.1-21.6-0.2-47.8-0.2-47.8s1.8,1.9,4.8,0c0.1,0,0.7,14.4,0.7,24.8
			c0,9.5,1.2,92.9,1.4,106.6c2.4,0.1,4.7,0.2,7,0.3c0-15.1,0-51.3-0.5-77.1c-0.5-25.4-1.4-44.5-1.8-52.3c1.2-0.6,2-1.8,2-3.2
			c0-0.2,0-0.5-0.1-0.7c1.5-0.3,2.7-1.4,3.2-2.8l11.8,1.3c-0.8,1.1-1.3,1.1-1.4,1.1h0c-1.8,0-3.3,1.6-3.3,3.5c0,1.9,1.4,3.5,3.3,3.5
			c0.9,0,1.8-0.4,2.4-1.1c-0.2,7-0.6,28.7,0.1,54.8c0.6,24.9,1.2,59.3,1.4,73.4c1.2,0,2.3,0,3.5,0c-0.1-6.1-1.3-60.4-1.4-80.8
			c-0.1-21.6-0.2-47.8-0.2-47.8s1.8,1.9,4.7,0c0.1,0,0.7,14.4,0.7,24.8c0,9.7,1.3,92.7,1.4,103.7c2.2-0.1,4.4-0.1,6.6-0.2
			c0-16.2-0.1-49.6-0.6-74.1c-0.5-25.3-1.4-44.6-1.8-52.3c1.2-0.6,2-1.8,2-3.2c0-0.2,0-0.5-0.1-0.7c1.3-0.3,2.4-1.2,3-2.3l12,1.3
			c-0.8,1.1-1.3,1.2-1.4,1.1h0c-1.8,0-3.3,1.5-3.3,3.5c0,1.9,1.5,3.5,3.3,3.5c0.9,0,1.8-0.5,2.4-1.1c-0.2,7-0.5,28.7,0.1,54.9
			c0.7,29.4,1.4,63,1.5,68.3c1-0.1,2-0.2,3-0.3c-0.3-14.5-1.2-58.7-1.3-76.6c-0.1-21.6-0.2-47.8-0.2-47.8s1.8,1.9,4.8,0
			c0.1,0,0.8,14.4,0.8,24.8c0,8.8,1,78.3,1.3,99.1c2.4-0.3,4.7-0.6,6.9-0.9c0-11.9-0.1-41.5-0.6-67.5c-0.5-25.3-1.4-44.5-1.8-52.3
			c1.2-0.5,2-1.8,2-3.2c0-0.3,0-0.5-0.1-0.7c1.3-0.3,2.4-1.2,3-2.4l11.7,1.3c-0.7,0.8-1.1,0.8-1.1,0.8c0,0,0,0,0,0
			c-1.8,0-3.3,1.6-3.3,3.5c0,1.9,1.5,3.5,3.3,3.5c1,0,1.8-0.4,2.4-1.1c-0.2,7-0.5,28.7,0.1,54.8c0.5,22.4,1.1,47.1,1.3,60.1
			c1-0.2,1.9-0.4,2.9-0.7c-0.4-19.1-1-52-1.2-66.9c-0.1-21.6-0.2-47.8-0.2-47.8s1.8,1.8,4.8,0c0.1,0,0.7,14.4,0.7,24.8
			c0,7.7,0.8,61.2,1.2,88.7c2.5-0.7,4.9-1.3,7.2-2c0-14.5-0.1-36.9-0.5-57.1c-0.5-25.4-1.4-44.5-1.8-52.4c1.2-0.5,2-1.8,2-3.2
			c0-0.2,0-0.5-0.1-0.7c1.2-0.3,2.3-1,2.9-2.1l11.8,1.3c-0.6,0.7-1,0.7-1.1,0.7c0,0,0,0,0,0c-1.8,0-3.3,1.6-3.3,3.5
			c0,1.9,1.5,3.5,3.3,3.5c1,0,1.8-0.4,2.4-1.1c-0.2,7-0.5,28.7,0.1,54.9c0.3,16.1,0.7,33.5,1,46.8c1.1-0.5,2.2-0.9,3.2-1.4
			c-0.4-18.6-0.8-41.8-0.9-53.6c-0.2-21.6-0.2-47.8-0.2-47.8s1.8,1.9,4.8,0c0.1,0,0.8,14.4,0.8,24.8c0,6.5,0.6,45.5,1,74.1
			c3.9-1.9,6.2-3.4,7-3.9c-0.1-12.4-0.2-26.7-0.5-40.1c-0.5-25.3-1.4-44.5-1.8-52.3c1.2-0.5,2-1.8,2-3.2c0-0.2,0-0.5-0.1-0.7
			c1.9-0.3,3.4-2,3.4-4.1c0-1-0.3-1.9-0.9-2.6l4.9-3.1L268.9,184.9z"/>
		<path class="st0" d="M339.4,139.9l-89.4,6L203.8,208l-82.6-6.1c0.3,1.8,1.4,8.1,4.5,13.3l77.7,7.5l53.4-68.5L474,179.9l0.2,1.3
			l-3,3v3.4l-1.8,1.1l-206.2-23.9l-62.7,75.8l-68.5-5.8c1.3,2.9,2.7,5.8,4.2,8.7l64.8,5.4l64.2-78.6l200.2,23.1v0.2l-3.2,2.5v3.9
			l-1.6,1.6l0.4,3.6l36-25.9v-3.7L339.4,139.9z M493,178.4l-239.8-28.1l-50.4,67l0.4-3.6l49.1-65.2L493,176.8V178.4z"/>
	</g>
	<g>
		<path class="st7" d="M6.8,579.5v-22.8H9v22.8H6.8z"/>
		<path class="st7" d="M29.3,569.5v-1.8h10.2v11.8h-1.9v-3.9c-0.4,0.7-0.9,1.3-1.4,1.8c-0.6,0.6-1.2,1-1.9,1.4
			c-0.7,0.4-1.5,0.7-2.4,0.9c-0.9,0.2-2,0.3-3.2,0.3c-1.5,0-2.9-0.2-4.2-0.7c-1.3-0.5-2.4-1.3-3.3-2.3c-0.9-1-1.6-2.3-2.2-3.8
			c-0.5-1.5-0.8-3.3-0.8-5.3c0-1.7,0.2-3.2,0.7-4.7c0.4-1.4,1.1-2.7,2-3.8c0.9-1.1,2-1.9,3.4-2.5c1.4-0.6,3-0.9,4.9-0.9
			c1.3,0,2.4,0.2,3.5,0.5c1.1,0.3,2.1,0.8,2.9,1.3c0.8,0.6,1.6,1.4,2.2,2.3c0.6,0.9,1,2,1.3,3.2h-2.3c-0.2-0.9-0.5-1.6-1-2.3
			c-0.5-0.7-1.1-1.2-1.7-1.7c-0.7-0.5-1.4-0.8-2.2-1c-0.8-0.2-1.7-0.4-2.5-0.4c-1.6,0-2.9,0.3-4,0.8c-1.1,0.5-2,1.3-2.8,2.3
			c-0.7,1-1.3,2.1-1.6,3.5c-0.3,1.3-0.5,2.8-0.5,4.4c0,1.3,0.2,2.5,0.6,3.6c0.4,1.1,0.9,2.1,1.7,3c0.7,0.9,1.6,1.5,2.7,2
			c1.1,0.5,2.3,0.8,3.6,0.8c0.6,0,1.3,0,2-0.2c0.7-0.1,1.4-0.3,2-0.7c0.6-0.3,1.2-0.7,1.8-1.2c0.5-0.5,1-1.1,1.4-1.9
			c0.4-0.7,0.7-1.4,0.8-2.2c0.2-0.8,0.2-1.6,0.3-2.5H29.3z"/>
		<path class="st7" d="M51.1,559.6L51.1,559.6L51,579.5h-2.2v-22.8h2.5l13.8,19.9h0v-19.9h2.3v22.8h-2.6L51.1,559.6z"/>
		<path class="st7" d="M77.5,579.5v-22.8h2.3v22.8H77.5z"/>
		<path class="st7" d="M87.7,556.7H105v1.8h-7.5v20.9h-2.3v-20.9h-7.5V556.7z"/>
		<path class="st7" d="M113,579.5v-22.8h2.3v22.8H113z"/>
		<path class="st7" d="M127.6,559.6L127.6,559.6l-0.1,19.9h-2.3v-22.8h2.6l13.8,19.9h0.1v-19.9h2.2v22.8h-2.6L127.6,559.6z"/>
		<path class="st7" d="M163.3,569.5v-1.8h10.2v11.8h-1.9v-3.9c-0.4,0.7-0.9,1.3-1.4,1.8c-0.5,0.6-1.2,1-1.9,1.4
			c-0.7,0.4-1.5,0.7-2.4,0.9c-0.9,0.2-2,0.3-3.1,0.3c-1.5,0-2.9-0.2-4.2-0.7c-1.3-0.5-2.4-1.3-3.3-2.3c-0.9-1-1.6-2.3-2.1-3.8
			c-0.5-1.5-0.8-3.3-0.8-5.3c0-1.7,0.2-3.2,0.7-4.7c0.4-1.4,1.1-2.7,2-3.8c0.9-1.1,2.1-1.9,3.5-2.5c1.4-0.6,3-0.9,4.9-0.9
			c1.3,0,2.4,0.2,3.5,0.5c1.1,0.3,2.1,0.8,3,1.3c0.9,0.6,1.6,1.4,2.2,2.3c0.6,0.9,1,2,1.3,3.2h-2.3c-0.2-0.9-0.5-1.6-1-2.3
			c-0.5-0.7-1-1.2-1.7-1.7c-0.7-0.5-1.4-0.8-2.2-1c-0.8-0.2-1.7-0.4-2.6-0.4c-1.6,0-2.9,0.3-4.1,0.8c-1.1,0.5-2,1.3-2.8,2.3
			c-0.7,1-1.3,2.1-1.6,3.5c-0.3,1.3-0.5,2.8-0.5,4.4c0,1.3,0.2,2.5,0.6,3.6c0.4,1.1,1,2.1,1.7,3c0.7,0.9,1.7,1.5,2.7,2
			c1.1,0.5,2.3,0.8,3.7,0.8c0.6,0,1.3,0,2-0.2c0.7-0.1,1.3-0.3,2-0.7c0.6-0.3,1.2-0.7,1.8-1.2c0.6-0.5,1-1.1,1.4-1.9
			c0.4-0.7,0.6-1.4,0.8-2.2c0.1-0.8,0.2-1.6,0.3-2.5H163.3z"/>
		<path class="st7" d="M209.2,579.5v-22.8H225v1.8h-13.6v8.2h12.3v1.8h-12.3v9.1h13.9v1.8H209.2z"/>
		<path class="st7" d="M240.7,569.4l-6.9,10.1h-2.5l8.2-11.7l-7.9-11.1h2.6l6.5,9.6l6.5-9.6h2.6l-7.8,11.1l8.2,11.7h-2.6
			L240.7,569.4z"/>
		<path class="st7" d="M274.4,563.3c-0.5-1.9-1.3-3.3-2.6-4.1c-1.3-0.8-2.9-1.3-4.9-1.3c-1.4,0-2.6,0.3-3.7,0.9
			c-1,0.5-1.9,1.3-2.6,2.2c-0.7,0.9-1.2,2-1.5,3.2c-0.3,1.2-0.5,2.5-0.5,3.8c0,1.3,0.1,2.5,0.4,3.7c0.3,1.2,0.7,2.3,1.4,3.3
			c0.6,1,1.5,1.8,2.6,2.3c1.1,0.6,2.4,0.9,4.1,0.9c1,0,1.9-0.1,2.8-0.5c0.9-0.3,1.6-0.8,2.2-1.3c0.6-0.5,1.2-1.2,1.6-2
			c0.4-0.7,0.8-1.6,1-2.5h2.4c-0.3,1.1-0.7,2.1-1.2,3.1c-0.5,1-1.2,1.8-2,2.6c-0.8,0.7-1.8,1.3-3,1.8c-1.2,0.4-2.6,0.6-4.1,0.6
			c-1.8,0-3.4-0.3-4.7-0.9c-1.3-0.7-2.4-1.5-3.2-2.6c-0.8-1.1-1.4-2.4-1.8-3.8c-0.4-1.4-0.6-3-0.6-4.6c0-2.2,0.3-4,0.8-5.5
			c0.6-1.5,1.4-2.7,2.3-3.8c1-0.9,2.2-1.6,3.5-2.1c1.4-0.4,2.8-0.7,4.4-0.7c1.2,0,2.3,0.2,3.4,0.5c1,0.3,1.9,0.8,2.8,1.4
			c0.8,0.6,1.5,1.4,2,2.3c0.5,0.9,0.9,1.9,1.1,3.1H274.4z"/>
		<path class="st7" d="M285.4,579.5v-22.8h15.8v1.8h-13.6v8.2h12.3v1.8h-12.3v9.1h13.9v1.8H285.4z"/>
		<path class="st7" d="M309.5,579.5v-22.8h2.3v21h12.8v1.8H309.5z"/>
		<path class="st7" d="M331.9,579.5v-22.8h2.2v21h12.8v1.8H331.9z"/>
		<path class="st7" d="M354.2,579.5v-22.8h15.8v1.8h-13.6v8.2h12.3v1.8h-12.3v9.1h13.9v1.8H354.2z"/>
		<path class="st7" d="M380.6,559.6L380.6,559.6l0,19.9h-2.2v-22.8h2.6l13.8,19.9h0.1v-19.9h2.3v22.8h-2.6L380.6,559.6z"/>
		<path class="st7" d="M423.1,563.3c-0.5-1.9-1.3-3.3-2.6-4.1c-1.3-0.8-2.9-1.3-4.9-1.3c-1.4,0-2.7,0.3-3.7,0.9
			c-1,0.5-1.9,1.3-2.6,2.2c-0.7,0.9-1.2,2-1.5,3.2c-0.3,1.2-0.5,2.5-0.5,3.8c0,1.3,0.1,2.5,0.4,3.7c0.3,1.2,0.7,2.3,1.4,3.3
			c0.7,1,1.5,1.8,2.6,2.3c1.1,0.6,2.4,0.9,4.1,0.9c1,0,2-0.1,2.8-0.5c0.9-0.3,1.6-0.8,2.2-1.3c0.6-0.5,1.2-1.2,1.6-2
			c0.4-0.7,0.7-1.6,1-2.5h2.3c-0.2,1.1-0.6,2.1-1.1,3.1c-0.5,1-1.2,1.8-2,2.6c-0.8,0.7-1.8,1.3-3,1.8c-1.2,0.4-2.6,0.6-4.1,0.6
			c-1.8,0-3.4-0.3-4.7-0.9c-1.3-0.7-2.4-1.5-3.2-2.6c-0.8-1.1-1.4-2.4-1.8-3.8c-0.4-1.4-0.5-3-0.5-4.6c0-2.2,0.3-4,0.8-5.5
			c0.6-1.5,1.3-2.7,2.3-3.8c1-0.9,2.2-1.6,3.5-2.1c1.3-0.4,2.8-0.7,4.4-0.7c1.2,0,2.3,0.2,3.4,0.5c1,0.3,2,0.8,2.8,1.4
			c0.8,0.6,1.5,1.4,2,2.3c0.5,0.9,0.9,1.9,1.1,3.1H423.1z"/>
		<path class="st7" d="M434.1,579.5v-22.8h15.9v1.8h-13.6v8.2h12.3v1.8h-12.3v9.1h13.9v1.8H434.1z"/>
	</g>
</g>
</svg>
