<?xml version="1.0" encoding="utf-8"?>
<!-- Generator: Adobe Illustrator 19.2.0, SVG Export Plug-In . SVG Version: 6.00 Build 0)  -->
<svg version="1.1" id="Layer_1" xmlns="http://www.w3.org/2000/svg" xmlns:xlink="http://www.w3.org/1999/xlink" x="0px" y="0px"
	 viewBox="0 0 694.1 171.1" style="enable-background:new 0 0 694.1 171.1;" xml:space="preserve">
<style type="text/css">
	.st0{fill:none;}
	.st1{fill:#A5A5A5;}
	.st2{fill:#FFFFFF;}
	.st3{fill:#ACD035;}
	.st4{fill:#BAD431;}
</style>
<g>
	<g>
		<g>
			<path class="st0" d="M14.6,138c-2.1-1.3-4-2.7-5.6-4.3c3.4,6.4,9.6,11.6,18.2,15.2C21.8,145.7,17.6,142.1,14.6,138z"/>
			<path class="st0" d="M212.2,97.5c-17.7,17.6-43.9,33.3-74,44.4c-25.8,9.5-51.7,14.5-74.3,14.5c-3.7,0-7.3-0.1-10.9-0.4
				c-2-0.2-4-0.4-5.9-0.6c10,2.6,21.5,3.9,34.1,3.9c16.4,0,34.6-2.3,53.2-7.1c29.4-7.6,55.6-20.4,73.8-35.9
				c17.7-15.1,25.6-31.1,22.5-45C227.4,79.6,221.2,88.5,212.2,97.5z"/>
			<path class="st1" d="M231.6,68.9c2.5-7.4,2.6-14.4,0.3-20.7c-3.5-9.4-12.1-16.5-25-20.7c-0.5-3-1.5-5.9-2.9-8.5
				c-7.1-13.2-24.2-19.9-48.1-18.9c-23.8,1-51.6,9.4-78.3,23.7C50.7,38.1,28.3,56.6,14.3,75.9c-14,19.4-17.9,37.4-10.9,50.6
				c0.8,1.4,1.7,2.8,2.7,4.1c0.1,0.2,0.1,0.4,0.2,0.6c3.9,10.6,14.4,18.3,30.2,22.2c4.7,1.9,10,3.4,15.9,4.6c9,1.8,18.7,2.7,29,2.7
				c16.9,0,35.1-2.4,53.5-7.2c29.6-7.7,56-20.5,74.3-36.2c18.4-15.8,26.5-32.5,22.7-47.2C231.8,69.7,231.7,69.3,231.6,68.9z
				 M207,29.1c12.1,4.1,20.2,10.8,23.5,19.7c2,5.5,2.1,11.6,0.3,18c-3.7-9.4-12.3-16.9-25.1-22.1C207.2,39.2,207.7,33.9,207,29.1z
				 M4.7,125.8c-6.8-12.7-3-30.1,10.8-49.1c13.8-19.1,36-37.5,62.6-51.7c29.2-15.7,58.8-23.6,82.1-23.6c20.3,0,35.9,6,42.5,18.3l0,0
				c1.2,2.3,2.1,4.8,2.7,7.4c-5.9-1.8-12.7-3-20.3-3.6c-24.8-2-55.1,3.1-85.1,14.1S43.7,64.4,26,82C10,97.8,2.8,113.4,5.1,126.6
				C4.9,126.3,4.8,126.1,4.7,125.8z M100.4,38.8c25.6-9.4,51.4-14.4,73.8-14.4c3.7,0,7.3,0.1,10.8,0.4c7.7,0.6,14.7,1.9,20.7,3.8
				c0.7,4.9,0.3,10.1-1.2,15.6c-4.6-1.8-9.7-3.2-15.2-4.3c-23.6-4.8-52.9-3.2-82.5,4.5C77,52,50.6,64.8,32.3,80.5
				C13.8,96.2,5.8,113,9.6,127.7c0.7,2.5,1.7,5,3,7.3c-2-1.5-3.7-3.2-5.2-5.1C-1.9,101.8,39.5,61.2,100.4,38.8z M204,45.5
				c-7.4,24.6-35.5,53.9-74.7,75C102.7,134.7,75.1,143,51.5,144c-15.1,0.6-27.4-1.9-36-7.1c-2.2-2.9-3.7-6.1-4.6-9.6
				c-7.6-29.4,35.5-66,96-81.7c18.3-4.7,36.4-7.1,53.2-7.1c10.2,0,19.9,0.9,28.8,2.7C194.4,42.3,199.4,43.8,204,45.5z M8.9,133.7
				c1.7,1.6,3.5,3,5.6,4.3c3.1,4.1,7.3,7.8,12.6,10.9C18.5,145.2,12.3,140.1,8.9,133.7z M17.9,139.8c7.7,3.7,17.5,5.7,29.3,5.7
				c1.5,0,2.9,0,4.5-0.1c23.8-1,51.6-9.4,78.3-23.7s49.1-32.8,63.1-52.1c5.9-8.2,10-16.1,12.3-23.5c13.1,5.3,21.7,13.2,24.8,22.9
				c-3,8.7-9.4,18.1-18.9,27.6c-17.5,17.4-43.6,33.1-73.5,44.1s-59.9,15.9-84.5,14c-5.9-0.5-11.4-1.3-16.3-2.5
				C29,148.9,22.5,144.8,17.9,139.8z M208.3,116.2c-18.2,15.5-44.4,28.3-73.8,35.9c-18.6,4.8-36.8,7.1-53.2,7.1
				c-12.6,0-24.1-1.3-34.1-3.9c1.9,0.2,3.9,0.5,5.9,0.6c3.5,0.3,7.1,0.4,10.9,0.4c22.5,0,48.5-5,74.3-14.5c30-11,56.3-26.8,74-44.4
				c9-8.9,15.2-17.8,18.5-26.2C233.9,85.2,226,101.1,208.3,116.2z"/>
		</g>
		<g>
			<path d="M57.1,25.8L57.1,25.8L57.1,25.8z"/>
			<path class="st2" d="M83,146.1V130c-4-0.1-11.1-1.3-16.8-6.7C60.3,117.6,57,109,57,97.7v-70L42,39.9V109c0,24.6,15,31.5,25,31.5
				c0,9.9,0,17,0,17c0,6.6,2.9,13.6,12.5,13.6c4.5,0,22.2-10.6,24.6-13.3c-2.1,1.9-4.5,2.8-8.1,2.8C87.6,160.6,83,155.1,83,146.1z"
				/>
			<path class="st2" d="M108,106.5v9h33.9c13.6,0,21.8-4.2,26.5-9.9c-2.8,0.5-5.9,0.9-9.2,0.9H108z"/>
			<path class="st2" d="M123.1,61.2c-6.2,0.3-12.8,4.3-14,10.5c8.3,0,33,0.1,33,0.1c14.2,0,22.5-4.7,27-10.8
				c-3,0.6-6.4,0.9-10.1,0.9C127.2,61.3,123.5,61.2,123.1,61.2z"/>
			<path class="st3" d="M107,73.9c0-8.5,8.3-14.1,16-14.4h0.1h0.1c0.3,0,35.6,0.7,35.9,0.7c22.3,0,30.6-11.6,31-22.6h-70.5
				c-17.9,0-34.2,14.1-35.1,30.2h-1.3v-9.4C83,36.2,71,28,59,27.6v69.9c0,22.6,12.3,31,24.1,31H84V146c0,3.8,1.4,12.8,11.8,12.8
				c7.2,0,11.2-4.3,11.2-12.8v-41.5h52.1c22.2,0,30.4-12,30.9-23h-83V73.9z"/>
		</g>
	</g>
	<g>
		<g>
			<path class="st2" d="M386.1,50.1h-10c-0.4,0-0.7-0.3-0.7-0.7V36c0-0.4-0.3-0.7-0.7-0.7h-4.5c-0.4,0-0.7,0.3-0.7,0.7v13.4
				c0,0.4-0.3,0.7-0.7,0.7h-5c-0.4,0-0.7,0.3-0.7,0.7v3.5c0,0.4,0.3,0.7,0.7,0.7h5c0.4,0,0.7,0.3,0.7,0.7v21c0,3.6,0.6,6.4,1.2,8.5
				c0.6,2.2,1.9,4.1,3.4,5.8c1.5,1.6,3.2,2.7,5.2,3.4c1.9,0.7,4.1,1,7,1c0.4,0,0.7-0.3,0.7-0.7v-4c0-0.4-0.3-0.7-0.7-0.7
				c-2.1-0.1-3.7-0.4-5.1-0.9c-1.3-0.5-2.4-1.2-3.2-2.2c-0.8-1-1.5-2.3-1.9-4c-0.4-1.8-0.7-4-0.7-6.6V55.9c0-0.4,0.3-0.7,0.7-0.7h10
				c0.4,0,0.7-0.3,0.7-0.7V51C386.9,50.5,386.5,50.1,386.1,50.1z"/>
			<path class="st2" d="M455.4,74.4c0.9-0.5,1.3-1.2,1.3-2.7c0-1.2-0.2-2.6-0.7-4.4s-1.1-3.3-1.8-4.7c-1.9-3.9-4.7-6.9-8.3-9.1
				c-3.6-2.2-7.6-3.3-11.9-3.3c-3.1,0-6.1,0.6-8.8,1.8c-2.7,1.2-5.2,2.8-7.2,4.9c-2.1,2.1-3.7,4.5-4.9,7.2c-1.2,2.7-1.8,5.7-1.8,8.8
				c0,3.1,0.6,6.1,1.8,8.8c1.2,2.7,2.8,5.2,4.8,7.2s4.5,3.7,7.2,4.8c2.8,1.2,5.7,1.8,8.8,1.8c5.4,0,10.1-1.6,14-4.7
				s6.6-7.4,8.1-12.9c0.1-0.4,0-0.7-0.2-1s-0.6-0.5-1-0.5h-3c-0.5,0-1,0.3-1.2,0.8c-1.2,4-3.3,7.2-6.3,9.5s-6.5,3.5-10.4,3.5
				c-2.3,0-4.5-0.4-6.5-1.3c-2-0.8-3.9-2-5.4-3.5c-1.6-1.5-2.8-3.6-3.8-5.6c-0.8-1.6-1.3-3.5-1.5-5.5h34.9
				C454.1,74.5,454.9,74.7,455.4,74.4z M433.8,55.4c2.2,0,4.4,0.4,6.4,1.2s3.8,1.9,5.4,3.4c1.6,1.4,2.9,3.4,3.9,5.4
				c0.8,1.6,1.3,3.2,1.6,5.2h-34.2c0.3-2,0.8-3.6,1.6-5.2c1-2,2.3-3.7,3.8-5.2c1.5-1.4,3.3-2.7,5.3-3.5
				C429.5,55.9,431.6,55.4,433.8,55.4z"/>
			<path class="st4" d="M692.8,74.4c0.9-0.5,1.3-1.2,1.3-2.7c0-1.2-0.2-2.6-0.7-4.4s-1.1-3.3-1.8-4.7c-1.9-3.9-4.7-6.9-8.3-9.1
				s-7.6-3.3-11.9-3.3c-3.1,0-6.1,0.6-8.8,1.8s-5.2,2.8-7.2,4.9c-2.1,2.1-3.7,4.5-4.9,7.2s-1.8,5.7-1.8,8.8c0,3.1,0.6,6.1,1.8,8.8
				c1.2,2.7,2.8,5.2,4.8,7.2s4.5,3.7,7.2,4.8c2.8,1.2,5.7,1.8,8.8,1.8c5.4,0,10.1-1.6,14-4.7s6.6-7.4,8.1-12.9c0.1-0.4,0-0.7-0.2-1
				s-0.6-0.5-1-0.5h-3c-0.5,0-1,0.3-1.2,0.8c-1.2,4-3.3,7.2-6.3,9.5s-6.5,3.5-10.4,3.5c-2.3,0-4.5-0.4-6.5-1.3c-2-0.8-3.9-2-5.4-3.5
				c-1.6-1.5-2.8-3.6-3.8-5.6c-0.8-1.6-1.3-3.5-1.5-5.5H689C691.5,74.5,692.3,74.7,692.8,74.4z M671.2,55.4c2.2,0,4.4,0.4,6.4,1.2
				s3.8,1.9,5.4,3.4c1.6,1.4,2.9,3.4,3.9,5.4c0.8,1.6,1.3,3.2,1.6,5.2h-34.2c0.3-2,0.8-3.6,1.6-5.2c1-2,2.3-3.7,3.8-5.2
				c1.5-1.4,3.3-2.7,5.3-3.5C666.9,55.9,669,55.4,671.2,55.4z"/>
			<path class="st2" d="M498.9,50.4c-2.2,0-4.1,0.2-5.6,0.6c-1.5,0.4-2.9,1-4.3,1.9c-2.4,1.5-3.9,3.6-4.9,6.1s-1.2,5.7-1.2,10v25.7
				c0,0.7,0.1,0.8,0.8,0.8h3.1c0.7,0,2.1-0.1,2.1-0.8V69.4c0-2.6-0.2-4.8,0.2-6.5c0.4-1.6,0.7-3,1.5-3.9c0.8-1,1.9-1.7,3.2-2.2
				c1.4-0.5,3-0.8,5-0.9c0.7,0,1.1-0.6,1.1-1.3v-2.9C500,51,499.6,50.4,498.9,50.4z"/>
			<path class="st4" d="M548.9,35.3C548.9,35.3,548.8,35.3,548.9,35.3c-5.1,0.2-9,1.6-11.3,4s-3.7,6.2-3.7,11.3v5.2
				c0,0.4-0.3,0.7-0.7,0.7h-3.5c-0.4,0-0.7,0.3-0.7,0.7v3.7c0,0.4,0.3,0.7,0.7,0.7h3.5c0.4,0,0.7,0.3,0.7,0.7v32.3
				c0,0.4,0.3,0.7,0.7,0.7h4.3c0.4,0,0.7-0.3,0.7-0.7v-32c0-0.4,0.3-0.7,0.7-0.7h8.7c0.4,0,0.7-0.3,0.7-0.7v-3.7
				c0-0.4-0.3-0.7-0.7-0.7h-8.7c-0.4,0-0.7-0.3-0.7-0.7v-5c0-3.9,0.5-6.7,2-8.3c1.5-1.8,5.2-2.3,6.7-2.5c0.4,0,0.7-0.4,0.7-0.7
				L548.9,35.3z"/>
			<g>
				<path class="st2" d="M276.1,95.6L276.1,95.6c-1.6,0-2.9-1.3-2.9-2.9V52.6c0-1.6,1.3-2.9,2.9-2.9l0,0c1.6,0,2.9,1.3,2.9,2.9v40.2
					C279,94.3,277.7,95.6,276.1,95.6z"/>
				<circle class="st2" cx="275.9" cy="39.3" r="3.9"/>
			</g>
			<g>
				<path class="st3" d="M579.7,95.6L579.7,95.6c-1.6,0-2.9-1.3-2.9-2.9V52.6c0-1.6,1.3-2.9,2.9-2.9l0,0c1.6,0,2.9,1.3,2.9,2.9v40.2
					C582.5,94.3,581.2,95.6,579.7,95.6z"/>
				<circle class="st3" cx="579.5" cy="39.3" r="3.9"/>
			</g>
			<g>
				<path class="st3" d="M620.1,95.6L620.1,95.6c-1.6,0-2.9-1.3-2.9-2.9V39.6c0-1.6,1.3-2.9,2.9-2.9l0,0c1.6,0,2.9,1.3,2.9,2.9v53.2
					C623,94.3,621.7,95.6,620.1,95.6z"/>
			</g>
			<path class="st2" d="M336.8,54.5c-3.1-2.7-7.3-4.4-11.8-4.4l0,0l0,0c-4.4,0-8.6,1.7-11.7,4.4c-3.5,3.2-6,7.8-6,13v27.4
				c0,0.4,0.3,0.7,0.7,0.7h4.5c0.4,0,0.7-0.3,0.7-0.7V80.5l0,0V67.7l0,0v-0.2v-0.1c0.8-6.3,5.5-11.3,11.8-11.3s10.9,5,11.8,11.3v0.1
				v0.2l0,0v12.8l0,0v14.4c0,0.4,0.3,0.7,0.7,0.7h4.5c0.4,0,0.7-0.3,0.7-0.7V67.5C342.8,62.3,340.3,57.7,336.8,54.5z"/>
		</g>
		<g>
			<path class="st2" d="M272,112.9h2.1v22.4H272V112.9z"/>
			<path class="st2" d="M294.4,129.9l1.8,0.9c-0.6,1.1-1.2,2-2,2.7s-1.6,1.2-2.5,1.6c-0.9,0.4-2,0.5-3.2,0.5c-2.6,0-4.7-0.9-6.2-2.6
				c-1.5-1.7-2.2-3.7-2.2-5.9c0-2,0.6-3.9,1.9-5.5c1.6-2,3.7-3.1,6.4-3.1c2.8,0,5,1,6.6,3.1c1.2,1.5,1.8,3.3,1.8,5.5h-14.5
				c0,1.9,0.6,3.4,1.8,4.6c1.2,1.2,2.6,1.8,4.3,1.8c0.8,0,1.6-0.1,2.4-0.4c0.8-0.3,1.4-0.7,2-1.1C293.2,131.8,293.8,131,294.4,129.9
				z M294.4,125.6c-0.3-1.1-0.7-2-1.2-2.7s-1.2-1.2-2.1-1.6s-1.8-0.6-2.8-0.6c-1.6,0-2.9,0.5-4.1,1.5c-0.8,0.7-1.5,1.9-1.9,3.3
				L294.4,125.6L294.4,125.6z"/>
			<path class="st2" d="M319.1,119.1v16.2h-2v-2.8c-0.9,1.1-1.8,1.9-2.9,2.4s-2.3,0.8-3.6,0.8c-2.3,0-4.2-0.8-5.9-2.5
				c-1.6-1.7-2.4-3.7-2.4-6.1c0-2.3,0.8-4.3,2.5-6c1.6-1.7,3.6-2.5,5.9-2.5c1.3,0,2.5,0.3,3.6,0.8c1.1,0.6,2,1.4,2.8,2.5v-3h2V119.1
				z M310.8,120.7c-1.2,0-2.2,0.3-3.2,0.9s-1.8,1.4-2.3,2.4c-0.6,1-0.9,2.1-0.9,3.3c0,1.1,0.3,2.2,0.9,3.3c0.6,1,1.4,1.8,2.4,2.4
				c1,0.6,2,0.9,3.2,0.9c1.1,0,2.2-0.3,3.2-0.9c1-0.6,1.8-1.3,2.4-2.3c0.5-1,0.8-2.1,0.8-3.3c0-1.9-0.6-3.4-1.8-4.7
				C314.1,121.4,312.6,120.7,310.8,120.7z"/>
			<path class="st2" d="M342.4,112.9v22.4h-2v-2.8c-0.9,1.1-1.8,1.9-2.9,2.4s-2.3,0.8-3.6,0.8c-2.3,0-4.2-0.8-5.9-2.5
				c-1.6-1.7-2.4-3.7-2.4-6.1c0-2.3,0.8-4.3,2.5-6c1.6-1.7,3.6-2.5,5.9-2.5c1.3,0,2.5,0.3,3.6,0.8c1.1,0.6,2,1.4,2.8,2.5v-9.2h2
				V112.9z M334.1,120.7c-1.2,0-2.2,0.3-3.2,0.9s-1.8,1.4-2.3,2.4c-0.6,1-0.9,2.1-0.9,3.3c0,1.1,0.3,2.2,0.9,3.3
				c0.6,1,1.4,1.8,2.4,2.4c1,0.6,2,0.9,3.2,0.9c1.1,0,2.2-0.3,3.2-0.9c1-0.6,1.8-1.3,2.4-2.3c0.5-1,0.8-2.1,0.8-3.3
				c0-1.9-0.6-3.4-1.8-4.7C337.4,121.4,335.9,120.7,334.1,120.7z"/>
			<path class="st2" d="M363.1,129.9l1.8,0.9c-0.6,1.1-1.2,2-2,2.7s-1.6,1.2-2.5,1.6c-0.9,0.4-2,0.5-3.2,0.5c-2.6,0-4.7-0.9-6.2-2.6
				c-1.5-1.7-2.2-3.7-2.2-5.9c0-2,0.6-3.9,1.9-5.5c1.6-2,3.7-3.1,6.4-3.1c2.8,0,5,1,6.6,3.1c1.2,1.5,1.8,3.3,1.8,5.5H351
				c0,1.9,0.6,3.4,1.8,4.6c1.2,1.2,2.6,1.8,4.3,1.8c0.8,0,1.6-0.1,2.4-0.4c0.8-0.3,1.4-0.7,2-1.1C361.9,131.8,362.5,131,363.1,129.9
				z M363.1,125.6c-0.3-1.1-0.7-2-1.2-2.7s-1.2-1.2-2.1-1.6s-1.8-0.6-2.8-0.6c-1.6,0-2.9,0.5-4.1,1.5c-0.8,0.7-1.5,1.9-1.9,3.3
				L363.1,125.6L363.1,125.6z"/>
			<path class="st2" d="M370.9,119.1h2.1v2.4c0.6-0.9,1.3-1.6,2-2.1s1.4-0.7,2.2-0.7c0.6,0,1.2,0.2,1.8,0.5l-1,1.8
				c-0.4-0.2-0.8-0.3-1.1-0.3c-0.7,0-1.4,0.3-2,0.9s-1.1,1.5-1.5,2.7c-0.3,0.9-0.4,2.8-0.4,5.6v5.5h-2.1V119.1z"/>
			<path class="st2" d="M391.4,120.9l-1.3,1.4c-1.1-1.1-2.2-1.6-3.3-1.6c-0.7,0-1.3,0.2-1.7,0.7c-0.5,0.4-0.7,1-0.7,1.6
				c0,0.5,0.2,1,0.6,1.5s1.2,1.1,2.5,1.7c1.5,0.8,2.6,1.6,3.2,2.3c0.5,0.8,0.8,1.6,0.8,2.5c0,1.3-0.5,2.5-1.4,3.4s-2.1,1.4-3.5,1.4
				c-0.9,0-1.8-0.2-2.7-0.6c-0.8-0.4-1.5-1-2.1-1.7l1.3-1.5c1.1,1.2,2.2,1.8,3.4,1.8c0.8,0,1.5-0.3,2.1-0.8s0.9-1.2,0.9-1.9
				c0-0.6-0.2-1.1-0.6-1.6s-1.3-1-2.6-1.7c-1.5-0.8-2.5-1.5-3-2.2s-0.8-1.6-0.8-2.5c0-1.2,0.4-2.2,1.3-3.1c0.8-0.8,1.9-1.2,3.2-1.2
				C388.4,118.7,389.9,119.5,391.4,120.9z"/>
			<path class="st2" d="M409.1,112.5c0.5,0,0.9,0.2,1.2,0.5c0.3,0.3,0.5,0.7,0.5,1.2s-0.2,0.9-0.5,1.2c-0.3,0.3-0.7,0.5-1.2,0.5
				s-0.9-0.2-1.2-0.5c-0.3-0.3-0.5-0.7-0.5-1.2s0.2-0.9,0.5-1.2C408.3,112.7,408.7,112.5,409.1,112.5z M408.1,119.1h2.1v16.2h-2.1
				V119.1z"/>
			<path class="st2" d="M416.9,119.1h2.1v2.9c0.8-1.1,1.8-1.9,2.8-2.5c1-0.5,2.1-0.8,3.3-0.8c1.2,0,2.3,0.3,3.2,0.9
				c0.9,0.6,1.6,1.4,2.1,2.5c0.4,1,0.7,2.7,0.7,4.9v8.3H429v-7.7c0-1.9-0.1-3.1-0.2-3.7c-0.2-1.1-0.7-1.9-1.4-2.4
				c-0.7-0.5-1.6-0.8-2.7-0.8c-1.3,0-2.4,0.4-3.4,1.2c-1,0.8-1.7,1.9-2,3.1c-0.2,0.8-0.3,2.3-0.3,4.4v5.9h-2.1V119.1z"/>
			<path class="st2" d="M449.1,113.5h12.5v2.1h-10.3v6.8h10.2v2.1h-10.2v8.6h10.2v2.1h-12.4L449.1,113.5L449.1,113.5z"/>
			<path class="st2" d="M467.9,113.5h4.3c1.7,0,3.1,0.2,4,0.6s1.7,1,2.2,1.9s0.8,1.8,0.8,2.8s-0.2,1.9-0.7,2.7
				c-0.5,0.8-1.2,1.4-2.1,1.9c1.1,0.4,2,0.8,2.6,1.4c0.6,0.5,1.1,1.1,1.4,1.9c0.3,0.7,0.5,1.5,0.5,2.4c0,1.8-0.6,3.2-1.9,4.4
				s-3,1.8-5.2,1.8h-6v-21.8H467.9z M470.1,115.6v7h1.3c1.5,0,2.6-0.1,3.3-0.4c0.7-0.3,1.3-0.7,1.7-1.3c0.4-0.6,0.6-1.3,0.6-2
				c0-1-0.3-1.8-1-2.4s-1.8-0.9-3.3-0.9C472.7,115.6,470.1,115.6,470.1,115.6z M470.1,124.8v8.4h2.7c1.6,0,2.8-0.2,3.5-0.5
				s1.3-0.8,1.8-1.5s0.7-1.4,0.7-2.2c0-1-0.3-1.8-1-2.5c-0.6-0.7-1.5-1.2-2.6-1.5c-0.7-0.2-2-0.3-3.9-0.3h-1.2V124.8z"/>
			<path class="st2" d="M487.7,113.5h4.4c2.5,0,4.2,0.1,5.1,0.3c1.2,0.3,2.3,0.9,3.1,1.9c0.8,1,1.2,2.2,1.2,3.6
				c0,1.5-0.4,2.7-1.2,3.6c-0.8,0.9-1.8,1.6-3.2,1.9c-1,0.2-2.8,0.4-5.6,0.4h-1.6v10.2h-2.2L487.7,113.5L487.7,113.5z M489.9,115.6
				v7.4h3.7c1.5,0,2.6-0.1,3.3-0.4c0.7-0.3,1.2-0.7,1.6-1.3c0.4-0.6,0.6-1.3,0.6-2s-0.2-1.4-0.6-2s-0.9-1-1.6-1.3
				c-0.6-0.3-1.7-0.4-3.2-0.4C493.7,115.6,489.9,115.6,489.9,115.6z"/>
			<path class="st2" d="M508.2,113.5h4.4c2.5,0,4.2,0.1,5.1,0.3c1.2,0.3,2.3,0.9,3.1,1.9s1.2,2.2,1.2,3.6c0,1.5-0.4,2.7-1.2,3.6
				s-1.8,1.6-3.2,1.9c-1,0.2-2.8,0.4-5.6,0.4h-1.6v10.2h-2.2L508.2,113.5L508.2,113.5z M510.4,115.6v7.4h3.7c1.5,0,2.6-0.1,3.3-0.4
				s1.2-0.7,1.6-1.3c0.4-0.6,0.6-1.3,0.6-2s-0.2-1.4-0.6-2c-0.4-0.6-0.9-1-1.6-1.3c-0.6-0.3-1.7-0.4-3.2-0.4
				C514.2,115.6,510.4,115.6,510.4,115.6z"/>
			<path class="st2" d="M537.2,131.2l1.9-1.1c1.3,2.4,2.8,3.6,4.5,3.6c0.7,0,1.4-0.2,2.1-0.5c0.6-0.3,1.1-0.8,1.5-1.4
				c0.3-0.6,0.5-1.2,0.5-1.8c0-0.7-0.2-1.5-0.7-2.2c-0.7-1-1.9-2.1-3.7-3.5s-3-2.4-3.4-3c-0.8-1-1.2-2.1-1.2-3.3
				c0-1,0.2-1.8,0.7-2.6c0.5-0.8,1.1-1.4,1.9-1.8c0.8-0.5,1.7-0.7,2.7-0.7s2,0.3,2.9,0.8s1.8,1.4,2.8,2.8l-1.8,1.4
				c-0.8-1.1-1.5-1.8-2.1-2.2c-0.6-0.3-1.2-0.5-1.9-0.5c-0.9,0-1.6,0.3-2.2,0.8c-0.6,0.5-0.8,1.2-0.8,2c0,0.5,0.1,0.9,0.3,1.4
				c0.2,0.4,0.6,0.9,1.1,1.5c0.3,0.3,1.2,1,2.8,2.2c1.9,1.4,3.2,2.6,3.9,3.7s1.1,2.2,1.1,3.3c0,1.6-0.6,3-1.8,4.1
				c-1.2,1.2-2.7,1.8-4.4,1.8c-1.3,0-2.5-0.4-3.6-1.1C539.1,134.1,538.1,132.9,537.2,131.2z"/>
			<path class="st2" d="M564.4,118.7c2.5,0,4.6,0.9,6.2,2.7c1.5,1.6,2.2,3.6,2.2,5.8c0,2.3-0.8,4.2-2.4,5.9
				c-1.6,1.7-3.6,2.5-6.1,2.5s-4.5-0.8-6.1-2.5s-2.4-3.7-2.4-5.9c0-2.2,0.7-4.2,2.2-5.8C559.8,119.6,561.9,118.7,564.4,118.7z
				 M564.4,120.8c-1.7,0-3.2,0.6-4.5,1.9c-1.2,1.3-1.9,2.8-1.9,4.6c0,1.2,0.3,2.3,0.8,3.3c0.6,1,1.3,1.8,2.3,2.3s2,0.8,3.2,0.8
				s2.2-0.3,3.2-0.8s1.7-1.3,2.3-2.3s0.8-2.1,0.8-3.3c0-1.8-0.6-3.4-1.9-4.6C567.6,121.4,566.1,120.8,564.4,120.8z"/>
			<path class="st2" d="M578.8,112.9h2.1v22.4h-2.1V112.9z"/>
			<path class="st2" d="M587.3,119.1h2.1v7.5c0,1.8,0.1,3.1,0.3,3.8c0.3,1,0.9,1.8,1.7,2.3c0.8,0.6,1.8,0.9,3,0.9s2.1-0.3,3-0.8
				c0.8-0.6,1.4-1.3,1.7-2.2c0.2-0.6,0.3-1.9,0.3-4v-7.5h2.1v7.9c0,2.2-0.3,3.9-0.8,5s-1.3,2-2.3,2.7c-1,0.6-2.4,1-3.9,1
				s-2.9-0.3-3.9-1c-1.1-0.6-1.8-1.5-2.4-2.7c-0.5-1.1-0.8-2.9-0.8-5.2L587.3,119.1L587.3,119.1z"/>
			<path class="st2" d="M610.3,113.1h2.1v6h3.3v1.8h-3.3v14.4h-2.1v-14.4h-2.8v-1.8h2.8V113.1z"/>
			<path class="st2" d="M622,112.5c0.5,0,0.9,0.2,1.2,0.5s0.5,0.7,0.5,1.2s-0.2,0.9-0.5,1.2c-0.3,0.3-0.7,0.5-1.2,0.5
				s-0.9-0.2-1.2-0.5s-0.5-0.7-0.5-1.2s0.2-0.9,0.5-1.2C621.1,112.7,621.5,112.5,622,112.5z M621,119.1h2.1v16.2H621V119.1z"/>
			<path class="st2" d="M637.4,118.7c2.5,0,4.6,0.9,6.2,2.7c1.5,1.6,2.2,3.6,2.2,5.8c0,2.3-0.8,4.2-2.4,5.9
				c-1.6,1.7-3.6,2.5-6.1,2.5s-4.5-0.8-6.1-2.5s-2.4-3.7-2.4-5.9c0-2.2,0.7-4.2,2.2-5.8C632.9,119.6,634.9,118.7,637.4,118.7z
				 M637.4,120.8c-1.7,0-3.2,0.6-4.5,1.9c-1.2,1.3-1.9,2.8-1.9,4.6c0,1.2,0.3,2.3,0.8,3.3c0.6,1,1.3,1.8,2.3,2.3s2,0.8,3.2,0.8
				s2.2-0.3,3.2-0.8s1.7-1.3,2.3-2.3s0.8-2.1,0.8-3.3c0-1.8-0.6-3.4-1.9-4.6C640.6,121.4,639.2,120.8,637.4,120.8z"/>
			<path class="st2" d="M652.1,119.1h2.1v2.9c0.8-1.1,1.8-1.9,2.8-2.5c1-0.5,2.1-0.8,3.3-0.8s2.3,0.3,3.2,0.9s1.6,1.4,2.1,2.5
				c0.4,1,0.7,2.7,0.7,4.9v8.3h-2.1v-7.7c0-1.9-0.1-3.1-0.2-3.7c-0.2-1.1-0.7-1.9-1.4-2.4s-1.6-0.8-2.7-0.8c-1.3,0-2.4,0.4-3.4,1.2
				c-1,0.8-1.7,1.9-2,3.1c-0.2,0.8-0.3,2.3-0.3,4.4v5.9h-2.1L652.1,119.1L652.1,119.1z"/>
			<path class="st2" d="M681.3,120.9l-1.3,1.4c-1.1-1.1-2.2-1.6-3.3-1.6c-0.7,0-1.3,0.2-1.7,0.7c-0.5,0.4-0.7,1-0.7,1.6
				c0,0.5,0.2,1,0.6,1.5c0.4,0.5,1.2,1.1,2.5,1.7c1.5,0.8,2.6,1.6,3.2,2.3c0.5,0.8,0.8,1.6,0.8,2.5c0,1.3-0.5,2.5-1.4,3.4
				s-2.1,1.4-3.5,1.4c-0.9,0-1.8-0.2-2.7-0.6c-0.8-0.4-1.5-1-2.1-1.7l1.3-1.5c1.1,1.2,2.2,1.8,3.4,1.8c0.8,0,1.5-0.3,2.1-0.8
				s0.9-1.2,0.9-1.9c0-0.6-0.2-1.1-0.6-1.6c-0.4-0.5-1.3-1-2.6-1.7c-1.5-0.8-2.5-1.5-3-2.2s-0.8-1.6-0.8-2.5c0-1.2,0.4-2.2,1.3-3.1
				c0.8-0.8,1.9-1.2,3.2-1.2C678.3,118.7,679.7,119.5,681.3,120.9z"/>
		</g>
	</g>
</g>
</svg>
