<?xml version="1.0" encoding="utf-8"?>
<!-- Generator: Adobe Illustrator 19.2.0, SVG Export Plug-In . SVG Version: 6.00 Build 0)  -->
<svg version="1.1" id="Layer_1" xmlns="http://www.w3.org/2000/svg" xmlns:xlink="http://www.w3.org/1999/xlink" x="0px" y="0px"
	 viewBox="0 0 244.7 144.2" style="enable-background:new 0 0 244.7 144.2;" xml:space="preserve">
<style type="text/css">
	.st0{fill:#035187;}
	.st1{fill:#006FA8;}
	.st2{fill:#FFFFFF;}
</style>
<g>
	<g>
		<path class="st0" d="M153.9,40.8l-1-5.7c-9.3,1.5-16.1,0.7-17.2-2.6c-1.2-3.6,4.4-9.2,14.2-14.1l-2.2-12.1l-19.8,34.5
			c-2.4,4.1-3.3,6.3-0.1,7.6l0,0.2h-13.3l0-0.2c4.6-2.1,6.7-6.3,9.2-10.5L142,7.1c1.6-2.7,3.6-5.8,0.3-6.9l0-0.2h11.5l3,15.3
			c1.5-0.6,3.1-1.2,4.7-1.7c2.8-0.9,8.9-2.2,12-2.4c-1.4,0.4-4.3,1.3-5.8,1.8c-3.9,1.3-7.5,2.7-10.6,4.3l2.1,10.6
			c3.7-0.5,7.9-1.6,12.4-3l1.1-0.4l2.9-14.5l4.9,10.1l-0.3,1.6c7.8-3.5,12.8-7.3,12-9.8c-0.7-2.2-6.4-3.1-13.2-2
			c7.7-2.7,16-2.1,16.9,1.9c0.9,3.9-5.8,9.8-16.6,15l-2.1,11.6c-0.6,3.4-2,8.7,1.4,10l0,0.3h-12.3h-1.1h-13.8l0-0.2
			C155.2,46.8,154.8,46,153.9,40.8 M171.6,30c-0.9,0.3-1.9,0.7-2.8,1c-2.9,1-5.7,1.8-8.5,2.5l0.9,4.4c0.8,4,1.2,8,4.5,10.2
			c3.2-1.7,3.7-6.7,4.3-9.8L171.6,30z M151.7,28.3l-1.2-6.9c-2.4,1.9-3.7,3.6-3.2,4.9C147.6,27.5,149.2,28.1,151.7,28.3"/>
		<path class="st0" d="M176.9,5.6H189c7.6,0,11.4,1.8,10.6,7.1c-1.3,8.4-10.9,12-16.3,14.1l9.4,19.1c1.6,2.7,3.8,2.7,7.5,2.7h6.5
			c-3.5-2.6-7.3-6.5-9.6-10.3l-5-10.1c5.9-2.3,13.8-7.6,14.6-15c1.2-11-7-13.2-16.4-13.2h-16.2L176.9,5.6z"/>
		<path class="st0" d="M244.7,1.6C241.5,0.5,238,0,234.4,0c-8.7,0-18.6,3.4-20.2,12.3c-2.8,14.9,22.1,13,20.1,23.9
			c-0.9,4.9-7.5,7.3-11.6,7.3c-5.6,0-11-2.3-14.5-5.8l-0.1,8.6c3.8,1.5,8.5,2.3,12.9,2.3c11.1,0,20.5-7,21.9-14.6
			c2.5-13-22.1-12.9-20.3-22.5c0.9-4.9,6.4-6.4,10.4-6.4c4,0,8.1,1.6,10.4,4.4L244.7,1.6z"/>
		<path class="st0" d="M123.1,1.6c-3.2-1.1-6.8-1.5-10.4-1.5c-8.7,0-18.6,3.4-20.2,12.3c-2.8,14.9,22.1,13,20.1,23.9
			c-0.9,4.9-7.5,7.3-11.6,7.3c-5.6,0-11-2.3-14.5-5.8l-0.1,8.6c3.8,1.5,8.5,2.3,12.9,2.3c11.1,0,20.5-7,21.9-14.6
			c2.5-13-22.1-12.9-20.3-22.5c0.9-4.9,6.4-6.4,10.4-6.4c4,0,8.1,1.6,10.4,4.4L123.1,1.6z"/>
		<path class="st0" d="M0,0c15.5,4,27.1,12.6,32.8,27.3C42,15.1,53.7,7.7,67,0L0,0z"/>
		<path class="st0" d="M72.9,0C57.4,8,44,16.6,33.9,30.5c1.4,4.6,2.1,9.4,2.1,14.4c0,1.3-0.1,2.4-0.2,3.7C48,24.3,71.8,9,97.2,0
			H72.9z"/>
	</g>
	<g>
		<circle class="st1" cx="43.9" cy="107.8" r="36.3"/>
		<g>
			<path class="st1" d="M88.4,121.1V95.3H113v2.9H91.9v8.2h20.3v2.9H91.9v11.9H88.4z"/>
			<path class="st1" d="M118.4,121.1V95.3h3.5v25.8H118.4z"/>
			<path class="st1" d="M128.9,121.1V95.3h3.5v23h20v2.9H128.9z"/>
			<path class="st1" d="M156.3,121.1V95.3h3.5v25.8H156.3z"/>
			<path class="st1" d="M166.5,121.1V95.3h5.2l23.6,22.7V95.3h3.5v25.8h-5.2L170,98.4v22.7H166.5z"/>
			<path class="st1" d="M237.2,108.3v3.6c0,3.5-0.6,6-1.9,7.4c-1.3,1.4-3.6,2.1-6.8,2.1H214c-3.4,0-5.8-0.8-7.2-2.3
				c-1.4-1.5-2.1-4-2.1-7.4v-7.1c0-3.4,0.7-5.8,2.1-7.4c1.4-1.5,3.8-2.3,7.2-2.3h13.2c6.4,0,9.6,2.4,9.6,7.1v0.9h-3.3
				c0-0.8,0-1.5-0.1-2.1c-0.1-0.5-0.3-1-0.6-1.4c-0.3-0.4-0.7-0.7-1.1-0.9c-0.4-0.2-1-0.4-1.9-0.5c-0.9-0.1-1.8-0.2-2.7-0.2
				c-0.9,0-2.2,0-3.8,0h-9.1c-1.9,0-3.4,0.4-4.5,1.2c-1.1,0.8-1.6,2.2-1.6,4.3v9.7c0,2.1,0.5,3.5,1.6,4.3c1.1,0.8,2.6,1.2,4.5,1.2
				h13.7c1.8,0,3.2-0.4,4.2-1.1c1-0.7,1.4-2,1.4-3.7v-2.6h-13.2v-2.9H237.2z"/>
		</g>
		<g>
			<path class="st2" d="M20.2,112.1V104c0-2.6,0.4-4.8,1.1-6.7c0.7-1.9,1.6-3.4,2.7-4.4c1.1-1,2.5-1.9,4.2-2.5
				c1.7-0.6,3.3-1,4.9-1.2c1.5-0.2,3.3-0.3,5.4-0.3h10.1c6.3,0,11.1,1.1,14.4,3.4c3.3,2.3,5,6.5,5,12.7v4.2H26.5v2.3
				c0,4.1,1.1,6.9,3.3,8.4c2.2,1.5,6.1,2.2,11.7,2.2h8.6c4.1,0,7-0.4,8.7-1.3c1.7-0.9,2.6-2.7,2.8-5.4h6.3v0.7c0,4.1-1.6,7-4.7,8.6
				c-3.1,1.7-7.8,2.5-14,2.5H37.7c-1.9,0-3.6-0.1-5-0.3c-1.4-0.2-3-0.6-4.6-1.2c-1.7-0.6-3-1.4-4.1-2.5c-1.1-1.1-2-2.6-2.7-4.5
				C20.6,117,20.2,114.7,20.2,112.1z M61.6,104.1v-2.5c0-2.2-1-4-3-5.4c-2-1.4-5.4-2.2-10.1-2.2h-9.2c-5,0-8.3,0.6-10,1.9
				c-1.6,1.3-2.6,4-2.9,8.2H61.6z"/>
		</g>
	</g>
</g>
</svg>
