<?xml version="1.0" encoding="utf-8"?>
<!-- Generator: Adobe Illustrator 19.2.0, SVG Export Plug-In . SVG Version: 6.00 Build 0)  -->
<svg version="1.1" id="Layer_1" xmlns="http://www.w3.org/2000/svg" xmlns:xlink="http://www.w3.org/1999/xlink" x="0px" y="0px"
	 viewBox="0 0 217.2 143.8" style="enable-background:new 0 0 217.2 143.8;" xml:space="preserve">
<style type="text/css">
	.st0{fill:#2A1F54;}
	.st1{fill:#D32028;}
	.st2{fill:#FFFFFF;}
</style>
<g>
	<path class="st0" d="M4.9,52.9c0,0,17.7-8,66.6,5.3c48.8,13.3,81.2-18.2,81.2-18.2s-25.8,14-62.1,5.8C54.2,37.5,23,44.3,4.9,52.9"
		/>
	<path class="st0" d="M69.4,15.6c0,0,17.7-8,66.6,5.3c48.8,13.3,81.2-18.2,81.2-18.2s-25.8,14-62.1,5.8C118.7,0.2,87.5,7,69.4,15.6"
		/>
	<path class="st1" d="M1.1,50.2c0,0,17.7-8,66.6,5.3c48.8,13.3,81.2-18.2,81.2-18.2s-25.8,14-62.1,5.8C50.4,34.8,19.1,41.6,1.1,50.2
		"/>
	<path class="st1" d="M65.6,12.9c0,0,17.7-8,66.6,5.3C180.9,31.5,213.4,0,213.4,0s-25.8,14-62.1,5.8C114.9-2.5,83.7,4.4,65.6,12.9"
		/>
	<path class="st0" d="M119.7,29.1c0,6.6-7.1,11.9-15.9,11.9c-8.8,0-15.9-5.3-15.9-11.9s7.1-11.9,15.9-11.9
		C112.5,17.1,119.7,22.5,119.7,29.1"/>
	<polyline class="st0" points="126,119 157.9,119 157.9,95.3 188.4,95.3 188.4,84.7 157.9,84.7 157.9,77 202.5,77 202.5,63.8 
		157.9,63.8 126,63.8 	"/>
	<rect x="87.8" y="63.8" class="st0" width="31.9" height="55.2"/>
	<rect y="125.7" class="st0" width="209.7" height="18.1"/>
	<polygon class="st2" points="26.8,129.5 28.8,129.5 23,140 22.5,140 17.8,131.5 13,140 12.6,140 6.7,129.5 8.8,129.5 12.8,136.7 
		16.8,129.5 18.8,129.5 22.8,136.7 	"/>
	<path class="st2" d="M36.7,129.4c2.2,0,4.1,0.5,5.6,1.5c1.5,1,2.2,2.3,2.2,3.9c0,1.5-0.8,2.8-2.3,3.8c-1.5,1-3.4,1.5-5.7,1.5
		c-2.2,0-4-0.5-5.5-1.5c-1.5-1-2.2-2.3-2.2-3.8c0-1.6,0.7-2.9,2.2-3.9C32.6,129.9,34.4,129.4,36.7,129.4 M36.8,130.8
		c-1.7,0-3,0.4-4.1,1.1c-1.1,0.7-1.6,1.7-1.6,2.9c0,1.1,0.5,2.1,1.6,2.8c1.1,0.8,2.4,1.1,4,1.1c1.6,0,3-0.4,4-1.1
		c1.1-0.8,1.6-1.7,1.6-2.9c0-1.1-0.5-2-1.6-2.8C39.7,131.2,38.3,130.8,36.8,130.8"/>
	<path class="st2" d="M47.1,140v-10.5h3.6c1.5,0,2.6,0.3,3.5,0.8c0.9,0.5,1.3,1.2,1.3,2.1c0,0.6-0.2,1.1-0.6,1.6
		c-0.4,0.4-1,0.8-1.8,1c0.5,0.2,0.9,0.5,1.4,0.9c0.4,0.4,1.1,1,1.9,2c0.5,0.6,0.9,1,1.2,1.3l0.8,0.7h-2.5l-0.6-0.7
		c0,0-0.1-0.1-0.1-0.1l-0.4-0.4L54,138l-0.7-0.8c-0.4-0.4-0.8-0.8-1.2-1c-0.4-0.3-0.7-0.4-1-0.6c-0.3-0.1-0.8-0.2-1.4-0.2h-0.5v4.6
		H47.1z M49.8,130.8h-0.6v3.3H50c1,0,1.8-0.1,2.2-0.2c0.4-0.1,0.7-0.3,0.9-0.6c0.2-0.3,0.3-0.6,0.3-0.9c0-0.3-0.1-0.6-0.4-0.9
		c-0.2-0.3-0.6-0.5-1-0.6C51.5,130.8,50.8,130.8,49.8,130.8"/>
	<polygon class="st2" points="68,129.5 70.6,129.5 64.4,134.5 72.2,140 69.3,140 61.9,134.8 61.9,140 59.9,140 59.9,129.5 
		61.9,129.5 61.9,134.3 	"/>
	<rect x="73.8" y="129.5" class="st2" width="2.1" height="10.5"/>
	<polygon class="st2" points="90.6,129.5 92.5,129.5 92.5,140 90.8,140 81.1,131.9 81.1,140 79.1,140 79.1,129.5 80.8,129.5 
		90.6,137.6 	"/>
	<path class="st2" d="M103.4,134.8h4.9v4.4c-1.8,0.6-3.5,0.8-5.3,0.8c-2.4,0-4.3-0.5-5.7-1.5c-1.4-1-2.1-2.3-2.1-3.7
		c0-1.6,0.7-2.9,2.2-3.9c1.5-1,3.4-1.6,5.6-1.6c0.8,0,1.6,0.1,2.3,0.2c0.7,0.1,1.7,0.4,2.8,0.7v1.5c-1.7-0.7-3.4-1.1-5.1-1.1
		c-1.6,0-2.9,0.4-4,1.2c-1.1,0.8-1.6,1.7-1.6,2.9c0,1.2,0.5,2.2,1.6,2.9c1.1,0.8,2.5,1.1,4.2,1.1c0.8,0,1.8-0.1,3-0.4l0.2,0v-2.2
		h-2.8V134.8z"/>
	<polygon class="st2" points="117.2,129.5 125,129.5 125,130.8 119.3,130.8 119.3,133.8 125,133.8 125,135.1 119.3,135.1 119.3,140 
		117.2,140 	"/>
	<path class="st2" d="M134.3,129.4c2.2,0,4.1,0.5,5.6,1.5c1.5,1,2.2,2.3,2.2,3.9c0,1.5-0.8,2.8-2.3,3.8c-1.5,1-3.4,1.5-5.7,1.5
		c-2.2,0-4-0.5-5.4-1.5c-1.5-1-2.2-2.3-2.2-3.8c0-1.6,0.7-2.9,2.2-3.9C130.2,129.9,132,129.4,134.3,129.4 M134.4,130.8
		c-1.7,0-3,0.4-4.1,1.1c-1.1,0.7-1.6,1.7-1.6,2.9c0,1.1,0.5,2.1,1.6,2.8c1.1,0.8,2.4,1.1,4,1.1c1.6,0,3-0.4,4-1.1
		c1.1-0.8,1.6-1.7,1.6-2.9c0-1.1-0.5-2-1.6-2.8C137.3,131.2,135.9,130.8,134.4,130.8"/>
	<path class="st2" d="M144.7,140v-10.5h3.6c1.5,0,2.6,0.3,3.5,0.8c0.9,0.5,1.3,1.2,1.3,2.1c0,0.6-0.2,1.1-0.6,1.6
		c-0.4,0.4-1,0.8-1.8,1c0.5,0.2,0.9,0.5,1.4,0.9c0.4,0.4,1.1,1,1.9,2c0.5,0.6,0.9,1,1.2,1.3l0.8,0.7h-2.5l-0.6-0.7
		c0,0-0.1-0.1-0.1-0.1l-0.4-0.4l-0.6-0.8l-0.7-0.8c-0.4-0.4-0.8-0.8-1.2-1c-0.4-0.3-0.7-0.4-1-0.6c-0.3-0.1-0.8-0.2-1.4-0.2h-0.5
		v4.6H144.7z M147.4,130.8h-0.6v3.3h0.8c1.1,0,1.8-0.1,2.2-0.2c0.4-0.1,0.7-0.3,0.9-0.6c0.2-0.3,0.3-0.6,0.3-0.9
		c0-0.3-0.1-0.6-0.4-0.9c-0.2-0.3-0.6-0.5-1-0.6C149.1,130.8,148.4,130.8,147.4,130.8"/>
	<polygon class="st2" points="168.9,129.5 171.4,129.5 166,134.4 166,140 163.9,140 163.9,134.4 158.6,129.5 161.1,129.5 
		164.9,133.1 	"/>
	<path class="st2" d="M178.4,129.4c2.2,0,4.1,0.5,5.6,1.5c1.5,1,2.2,2.3,2.2,3.9c0,1.5-0.7,2.8-2.2,3.8c-1.5,1-3.4,1.5-5.7,1.5
		c-2.2,0-4-0.5-5.5-1.5c-1.5-1-2.2-2.3-2.2-3.8c0-1.6,0.7-2.9,2.2-3.9C174.3,129.9,176.1,129.4,178.4,129.4 M178.4,130.8
		c-1.7,0-3,0.4-4.1,1.1c-1.1,0.7-1.6,1.7-1.6,2.9c0,1.1,0.5,2.1,1.6,2.8c1.1,0.8,2.4,1.1,4,1.1c1.6,0,3-0.4,4-1.1
		c1.1-0.8,1.6-1.7,1.6-2.9c0-1.1-0.5-2-1.6-2.8C181.3,131.2,180,130.8,178.4,130.8"/>
	<path class="st2" d="M198.8,129.5h2.1v6c0,0.8-0.1,1.4-0.2,1.8c-0.2,0.4-0.4,0.8-0.6,1c-0.2,0.3-0.5,0.5-0.9,0.7
		c-1.1,0.7-2.6,1.1-4.5,1.1c-1.9,0-3.4-0.4-4.5-1.1c-0.3-0.2-0.6-0.5-0.9-0.7c-0.2-0.3-0.4-0.6-0.6-1c-0.2-0.4-0.2-1-0.2-1.9v-5.9
		h2.1v6c0,1,0.2,1.7,0.5,2.1c0.3,0.4,0.8,0.7,1.4,0.9c0.6,0.2,1.4,0.3,2.2,0.3c1.2,0,2.2-0.2,3-0.7c0.4-0.3,0.7-0.5,0.9-0.9
		c0.2-0.3,0.3-0.9,0.3-1.7V129.5z"/>
	<path class="st0" d="M81.1,100.5v-1.3V63.8h-12v36.7c0,0,1,9.6-12.8,9.4c-11.8-0.1-12-8.4-12-8.4V63.8H11.2v36.4
		c0,0-2.5,19.8,33.4,20.6c31.2,0.7,36-11.9,36.6-17.5V100.5z"/>
</g>
</svg>
