<?xml version="1.0" encoding="utf-8"?>
<!-- Generator: Adobe Illustrator 19.2.0, SVG Export Plug-In . SVG Version: 6.00 Build 0)  -->
<svg version="1.1" id="Layer_1" xmlns="http://www.w3.org/2000/svg" xmlns:xlink="http://www.w3.org/1999/xlink" x="0px" y="0px"
	 viewBox="0 0 990 200" style="enable-background:new 0 0 990 200;" xml:space="preserve">
<style type="text/css">
	.st0{fill:#676767;}
	.st1{font-family:'MyriadPro-Regular';}
	.st2{font-size:20.2106px;}
	.st3{fill:none;}
	.st4{fill:#989898;}
	.st5{fill:#010101;}
	.st6{fill:#9FC53B;}
	.st7{fill:#95BF3D;}
	.st8{opacity:0.39;fill:#676767;}
</style>
<text transform="matrix(1 0 0 1 205.7495 157.8369)" class="st0 st1 st2">Electronic Bill Presentment and Payment Portals a product of interfile</text>
<g>
	<g>
		<g>
			<g>
				<path class="st3" d="M333.7,110.3c-1-0.6-1.9-1.3-2.6-2c1.6,3,4.5,5.4,8.5,7.1C337.1,113.9,335.1,112.2,333.7,110.3z"/>
				<path class="st4" d="M435.5,77.9c1.2-3.5,1.2-6.8,0.1-9.7c-1.6-4.4-5.7-7.7-11.7-9.7c-0.2-1.4-0.7-2.8-1.4-4
					c-3.3-6.2-11.4-9.3-22.6-8.9c-11.2,0.5-24.2,4.4-36.8,11.1c-12.6,6.7-23.1,15.4-29.7,24.5c-6.6,9.1-8.4,17.6-5.1,23.8
					c0.4,0.7,0.8,1.3,1.3,1.9c0,0.1,0,0.2,0.1,0.3c1.8,5,6.8,8.6,14.2,10.4c2.2,0.9,4.7,1.6,7.5,2.2c4.2,0.8,8.8,1.3,13.6,1.3
					c7.9,0,16.5-1.1,25.1-3.4c13.9-3.6,26.3-9.6,34.9-17c8.6-7.4,12.4-15.3,10.7-22.2C435.6,78.2,435.6,78,435.5,77.9z M424,59.2
					c5.7,1.9,9.5,5.1,11,9.2c0.9,2.6,1,5.4,0.1,8.4c-1.7-4.4-5.8-7.9-11.8-10.4C424.1,63.9,424.3,61.4,424,59.2z M329,104.6
					c-3.2-6-1.4-14.1,5.1-23c6.5-9,16.9-17.6,29.4-24.3c13.7-7.4,27.6-11.1,38.5-11.1c9.5,0,16.9,2.8,20,8.6l0,0
					c0.6,1.1,1,2.3,1.3,3.5c-2.8-0.8-6-1.4-9.5-1.7c-11.6-0.9-25.9,1.5-39.9,6.6C359.7,68.3,347.3,75.7,339,84
					c-7.5,7.4-10.9,14.7-9.8,20.9C329.1,104.8,329.1,104.7,329,104.6z M374,63.7c12-4.4,24.1-6.8,34.6-6.8c1.7,0,3.4,0,5.1,0.2
					c3.6,0.3,6.9,0.9,9.7,1.8c0.3,2.3,0.1,4.7-0.6,7.3c-2.2-0.8-4.6-1.5-7.1-2c-11.1-2.3-24.8-1.5-38.7,2.1
					c-14,3.6-26.4,9.6-35,16.9c-8.7,7.4-12.4,15.3-10.7,22.2c0.3,1.2,0.8,2.3,1.4,3.4c-0.9-0.7-1.7-1.5-2.4-2.4
					C325.9,93.3,345.4,74.2,374,63.7z M422.6,66.9c-3.5,11.5-16.7,25.3-35.1,35.2c-12.5,6.7-25.4,10.6-36.5,11
					c-7.1,0.3-12.9-0.9-16.9-3.3c-1-1.4-1.7-2.9-2.2-4.5c-3.6-13.8,16.7-31,45.1-38.4c8.6-2.2,17.1-3.3,25-3.3
					c4.8,0,9.3,0.4,13.5,1.3C418.1,65.4,420.4,66.1,422.6,66.9z M331,108.3c0.8,0.8,1.6,1.4,2.6,2c1.5,1.9,3.4,3.7,5.9,5.1
					C335.5,113.7,332.6,111.3,331,108.3z M335.2,111.1c3.6,1.7,8.2,2.7,13.8,2.7c0.7,0,1.4,0,2.1,0c11.2-0.5,24.2-4.4,36.8-11.1
					c12.5-6.7,23-15.4,29.6-24.5c2.8-3.8,4.7-7.6,5.8-11c6.1,2.5,10.2,6.2,11.6,10.8c-1.4,4.1-4.4,8.5-8.9,13
					c-8.2,8.2-20.5,15.5-34.5,20.7c-14,5.2-28.1,7.5-39.7,6.6c-2.8-0.2-5.4-0.6-7.7-1.2C340.4,115.4,337.4,113.5,335.2,111.1z
					 M424.6,100.1c-8.5,7.3-20.8,13.3-34.6,16.9c-8.7,2.3-17.3,3.3-25,3.3c-5.9,0-11.3-0.6-16-1.8c0.9,0.1,1.8,0.2,2.8,0.3
					c1.6,0.1,3.3,0.2,5.1,0.2c10.6,0,22.8-2.3,34.9-6.8c14.1-5.2,26.4-12.6,34.7-20.8c4.2-4.2,7.1-8.4,8.7-12.3
					C436.6,85.5,432.9,93,424.6,100.1z"/>
			</g>
			<g>
				<path class="st5" d="M353.6,57.6L353.6,57.6L353.6,57.6z"/>
				<path class="st0" d="M365.8,114.1v-7.6c-1.9,0-5.2-0.6-7.9-3.1c-2.8-2.7-4.3-6.7-4.3-12V58.5l-7,5.7v32.4
					c0,11.5,7,14.8,11.7,14.8c0,4.6,0,8,0,8c0,3.1,1.4,6.4,5.9,6.4c2.1,0,10.4-5,11.5-6.2c-1,0.9-2.1,1.3-3.8,1.3
					C367.9,120.9,365.8,118.3,365.8,114.1z"/>
				<path class="st0" d="M377.5,95.5v4.2h15.9c6.4,0,10.2-2,12.4-4.6c-1.3,0.2-2.8,0.4-4.3,0.4H377.5z"/>
				<path class="st0" d="M384.6,74.2c-2.9,0.1-6,2-6.6,4.9c3.9,0,15.5,0,15.5,0c6.7,0,10.6-2.2,12.7-5.1c-1.4,0.3-3,0.4-4.7,0.4
					C386.5,74.3,384.8,74.2,384.6,74.2z"/>
				<path class="st6" d="M377.1,80.2c0-4,3.9-6.6,7.5-6.8h0h0c0.1,0,16.7,0.3,16.9,0.3c10.5,0,14.4-5.4,14.6-10.6H383
					c-8.4,0-16.1,6.6-16.5,14.2h-0.6v-4.4c-0.1-10.4-5.7-14.3-11.4-14.5v32.8c0,10.6,5.8,14.6,11.3,14.6h0.4v8.2c0,1.8,0.7,6,5.5,6
					c3.4,0,5.3-2,5.3-6V94.6h24.5c10.4,0,14.3-5.6,14.5-10.8h-39V80.2z"/>
			</g>
		</g>
		<g>
			<g>
				<path class="st0" d="M508.1,69h-4.7c-0.2,0-0.3-0.1-0.3-0.3v-6.3c0-0.2-0.1-0.3-0.3-0.3h-2.1c-0.2,0-0.3,0.1-0.3,0.3v6.3
					c0,0.2-0.1,0.3-0.3,0.3h-2.3c-0.2,0-0.3,0.1-0.3,0.3V71c0,0.2,0.1,0.3,0.3,0.3h2.3c0.2,0,0.3,0.1,0.3,0.3v9.9c0,1.7,0.3,3,0.6,4
					c0.3,1,0.9,1.9,1.6,2.7c0.7,0.8,1.5,1.3,2.4,1.6c0.9,0.3,1.9,0.5,3.3,0.5c0.2,0,0.3-0.1,0.3-0.3v-1.9c0-0.2-0.1-0.3-0.3-0.3
					c-1,0-1.7-0.2-2.4-0.4c-0.6-0.2-1.1-0.6-1.5-1s-0.7-1.1-0.9-1.9c-0.2-0.8-0.3-1.9-0.3-3.1v-9.6c0-0.2,0.1-0.3,0.3-0.3h4.7
					c0.2,0,0.3-0.1,0.3-0.3v-1.6C508.4,69.2,508.3,69,508.1,69z"/>
				<path class="st0" d="M540.6,80.4c0.4-0.2,0.6-0.6,0.6-1.3c0-0.6-0.1-1.2-0.3-2.1c-0.2-0.8-0.5-1.5-0.8-2.2
					c-0.9-1.8-2.2-3.2-3.9-4.3c-1.7-1-3.6-1.5-5.6-1.5c-1.5,0-2.9,0.3-4.1,0.8s-2.4,1.3-3.4,2.3c-1,1-1.7,2.1-2.3,3.4
					c-0.6,1.3-0.8,2.7-0.8,4.1c0,1.5,0.3,2.9,0.8,4.1c0.6,1.3,1.3,2.4,2.3,3.4c0.9,0.9,2.1,1.7,3.4,2.3c1.3,0.6,2.7,0.8,4.1,0.8
					c2.5,0,4.7-0.8,6.6-2.2s3.1-3.5,3.8-6.1c0-0.2,0-0.3-0.1-0.5c-0.1-0.1-0.3-0.2-0.5-0.2h-1.4c-0.2,0-0.5,0.1-0.6,0.4
					c-0.6,1.9-1.5,3.4-3,4.5c-1.4,1.1-3.1,1.6-4.9,1.6c-1.1,0-2.1-0.2-3.1-0.6c-0.9-0.4-1.8-0.9-2.5-1.6c-0.8-0.7-1.3-1.7-1.8-2.6
					c-0.4-0.8-0.6-1.6-0.7-2.6h16.4C540,80.5,540.4,80.6,540.6,80.4z M530.5,71.5c1,0,2.1,0.2,3,0.6c0.9,0.4,1.8,0.9,2.5,1.6
					c0.8,0.7,1.4,1.6,1.8,2.5c0.4,0.8,0.6,1.5,0.8,2.4h-16.1c0.1-0.9,0.4-1.7,0.8-2.4c0.5-0.9,1.1-1.7,1.8-2.4
					c0.7-0.7,1.5-1.3,2.5-1.6C528.4,71.8,529.4,71.5,530.5,71.5z"/>
				<path class="st7" d="M652,80.4c0.4-0.2,0.6-0.6,0.6-1.3c0-0.6-0.1-1.2-0.3-2.1c-0.2-0.8-0.5-1.5-0.8-2.2
					c-0.9-1.8-2.2-3.2-3.9-4.3c-1.7-1-3.6-1.5-5.6-1.5c-1.5,0-2.9,0.3-4.1,0.8s-2.4,1.3-3.4,2.3c-1,1-1.7,2.1-2.3,3.4
					c-0.6,1.3-0.8,2.7-0.8,4.1c0,1.5,0.3,2.9,0.8,4.1c0.6,1.3,1.3,2.4,2.3,3.4c0.9,0.9,2.1,1.7,3.4,2.3c1.3,0.6,2.7,0.8,4.1,0.8
					c2.5,0,4.7-0.8,6.6-2.2s3.1-3.5,3.8-6.1c0-0.2,0-0.3-0.1-0.5c-0.1-0.1-0.3-0.2-0.5-0.2h-1.4c-0.2,0-0.5,0.1-0.6,0.4
					c-0.6,1.9-1.5,3.4-3,4.5c-1.4,1.1-3.1,1.6-4.9,1.6c-1.1,0-2.1-0.2-3.1-0.6c-0.9-0.4-1.8-0.9-2.5-1.6c-0.8-0.7-1.3-1.7-1.8-2.6
					c-0.4-0.8-0.6-1.6-0.7-2.6h16.4C651.4,80.5,651.8,80.6,652,80.4z M641.9,71.5c1,0,2.1,0.2,3,0.6c0.9,0.4,1.8,0.9,2.5,1.6
					c0.8,0.7,1.4,1.6,1.8,2.5c0.4,0.8,0.6,1.5,0.8,2.4H634c0.1-0.9,0.4-1.7,0.8-2.4c0.5-0.9,1.1-1.7,1.8-2.4
					c0.7-0.7,1.5-1.3,2.5-1.6C639.9,71.8,640.9,71.5,641.9,71.5z"/>
				<path class="st0" d="M561,69.2c-1,0-1.9,0.1-2.6,0.3c-0.7,0.2-1.4,0.5-2,0.9c-1.1,0.7-1.8,1.7-2.3,2.9c-0.5,1.2-0.6,2.7-0.6,4.7
					V90c0,0.3,0,0.4,0.4,0.4h1.5c0.3,0,1,0,1-0.4V78.1c0-1.2-0.1-2.3,0.1-3.1c0.2-0.8,0.3-1.4,0.7-1.8c0.4-0.5,0.9-0.8,1.5-1
					c0.7-0.2,1.4-0.4,2.3-0.4c0.3,0,0.5-0.3,0.5-0.6v-1.4C561.5,69.5,561.4,69.2,561,69.2z"/>
				<path class="st7" d="M584.5,62.1C584.5,62.1,584.5,62.1,584.5,62.1c-2.4,0.1-4.2,0.8-5.3,1.9c-1.1,1.1-1.7,2.9-1.7,5.3v2.4
					c0,0.2-0.1,0.3-0.3,0.3h-1.6c-0.2,0-0.3,0.1-0.3,0.3v1.7c0,0.2,0.1,0.3,0.3,0.3h1.6c0.2,0,0.3,0.1,0.3,0.3v15.2
					c0,0.2,0.1,0.3,0.3,0.3h2c0.2,0,0.3-0.1,0.3-0.3v-15c0-0.2,0.1-0.3,0.3-0.3h4.1c0.2,0,0.3-0.1,0.3-0.3v-1.7
					c0-0.2-0.1-0.3-0.3-0.3h-4.1c-0.2,0-0.3-0.1-0.3-0.3v-2.3c0-1.8,0.2-3.1,0.9-3.9c0.7-0.8,2.4-1.1,3.1-1.2c0.2,0,0.3-0.2,0.3-0.3
					L584.5,62.1z"/>
				<g>
					<path class="st0" d="M456.4,90.4L456.4,90.4c-0.8,0-1.4-0.6-1.4-1.4V70.2c0-0.8,0.6-1.4,1.4-1.4l0,0c0.8,0,1.4,0.6,1.4,1.4
						v18.9C457.8,89.8,457.2,90.4,456.4,90.4z"/>
					<circle class="st0" cx="456.3" cy="64" r="1.8"/>
				</g>
				<g>
					<path class="st7" d="M599,90.4L599,90.4c-0.8,0-1.4-0.6-1.4-1.4V70.2c0-0.8,0.6-1.4,1.4-1.4l0,0c0.8,0,1.4,0.6,1.4,1.4v18.9
						C600.3,89.8,599.7,90.4,599,90.4z"/>
					<circle class="st7" cx="598.9" cy="64" r="1.8"/>
				</g>
				<g>
					<path class="st7" d="M617.9,90.4L617.9,90.4c-0.8,0-1.4-0.6-1.4-1.4V64.1c0-0.8,0.6-1.4,1.4-1.4l0,0c0.8,0,1.4,0.6,1.4,1.4v25
						C619.3,89.8,618.7,90.4,617.9,90.4z"/>
				</g>
				<path class="st0" d="M484.9,71.1c-1.5-1.3-3.4-2.1-5.5-2.1l0,0l0,0c-2.1,0-4,0.8-5.5,2.1c-1.6,1.5-2.8,3.7-2.8,6.1v12.9
					c0,0.2,0.1,0.3,0.3,0.3h2.1c0.2,0,0.3-0.1,0.3-0.3v-6.8l0,0v-6l0,0v-0.1v0c0.4-3,2.6-5.3,5.5-5.3c3,0,5.1,2.3,5.5,5.3v0v0.1l0,0
					v6l0,0v6.8c0,0.2,0.1,0.3,0.3,0.3h2.1c0.2,0,0.3-0.1,0.3-0.3V77.2C487.7,74.8,486.6,72.6,484.9,71.1z"/>
			</g>
			<g>
				<path class="st4" d="M454.5,98.5h1V109h-1V98.5z"/>
				<path class="st4" d="M465,106.5l0.8,0.4c-0.3,0.5-0.6,0.9-0.9,1.3c-0.4,0.3-0.8,0.6-1.2,0.8s-0.9,0.2-1.5,0.2
					c-1.2,0-2.2-0.4-2.9-1.2c-0.7-0.8-1-1.7-1-2.8c0-0.9,0.3-1.8,0.9-2.6c0.8-0.9,1.7-1.5,3-1.5c1.3,0,2.3,0.5,3.1,1.5
					c0.6,0.7,0.8,1.5,0.8,2.6h-6.8c0,0.9,0.3,1.6,0.8,2.2c0.6,0.6,1.2,0.8,2,0.8c0.4,0,0.8,0,1.1-0.2c0.4-0.1,0.7-0.3,0.9-0.5
					C464.5,107.4,464.7,107,465,106.5z M465,104.5c-0.1-0.5-0.3-0.9-0.6-1.3c-0.2-0.3-0.6-0.6-1-0.8s-0.8-0.3-1.3-0.3
					c-0.8,0-1.4,0.2-1.9,0.7c-0.4,0.3-0.7,0.9-0.9,1.5L465,104.5L465,104.5z"/>
				<path class="st4" d="M476.6,101.4v7.6h-0.9v-1.3c-0.4,0.5-0.8,0.9-1.4,1.1c-0.5,0.2-1.1,0.4-1.7,0.4c-1.1,0-2-0.4-2.8-1.2
					c-0.8-0.8-1.1-1.7-1.1-2.9c0-1.1,0.4-2,1.2-2.8c0.8-0.8,1.7-1.2,2.8-1.2c0.6,0,1.2,0.1,1.7,0.4c0.5,0.3,0.9,0.7,1.3,1.2v-1.4
					L476.6,101.4L476.6,101.4z M472.7,102.2c-0.6,0-1,0.1-1.5,0.4c-0.5,0.3-0.8,0.7-1.1,1.1c-0.3,0.5-0.4,1-0.4,1.5
					c0,0.5,0.1,1,0.4,1.5c0.3,0.5,0.7,0.8,1.1,1.1c0.5,0.3,0.9,0.4,1.5,0.4c0.5,0,1-0.1,1.5-0.4c0.5-0.3,0.8-0.6,1.1-1.1
					c0.2-0.5,0.4-1,0.4-1.5c0-0.9-0.3-1.6-0.8-2.2C474.3,102.5,473.6,102.2,472.7,102.2z"/>
				<path class="st4" d="M487.6,98.5V109h-0.9v-1.3c-0.4,0.5-0.8,0.9-1.4,1.1c-0.5,0.2-1.1,0.4-1.7,0.4c-1.1,0-2-0.4-2.8-1.2
					c-0.8-0.8-1.1-1.7-1.1-2.9c0-1.1,0.4-2,1.2-2.8c0.8-0.8,1.7-1.2,2.8-1.2c0.6,0,1.2,0.1,1.7,0.4c0.5,0.3,0.9,0.7,1.3,1.2v-4.3
					L487.6,98.5L487.6,98.5z M483.7,102.2c-0.6,0-1,0.1-1.5,0.4c-0.5,0.3-0.8,0.7-1.1,1.1c-0.3,0.5-0.4,1-0.4,1.5
					c0,0.5,0.1,1,0.4,1.5c0.3,0.5,0.7,0.8,1.1,1.1c0.5,0.3,0.9,0.4,1.5,0.4c0.5,0,1-0.1,1.5-0.4c0.5-0.3,0.8-0.6,1.1-1.1
					c0.2-0.5,0.4-1,0.4-1.5c0-0.9-0.3-1.6-0.8-2.2C485.2,102.5,484.5,102.2,483.7,102.2z"/>
				<path class="st4" d="M497.3,106.5l0.8,0.4c-0.3,0.5-0.6,0.9-0.9,1.3c-0.4,0.3-0.8,0.6-1.2,0.8s-0.9,0.2-1.5,0.2
					c-1.2,0-2.2-0.4-2.9-1.2c-0.7-0.8-1-1.7-1-2.8c0-0.9,0.3-1.8,0.9-2.6c0.8-0.9,1.7-1.5,3-1.5c1.3,0,2.3,0.5,3.1,1.5
					c0.6,0.7,0.8,1.5,0.8,2.6h-6.8c0,0.9,0.3,1.6,0.8,2.2c0.6,0.6,1.2,0.8,2,0.8c0.4,0,0.8,0,1.1-0.2c0.4-0.1,0.7-0.3,0.9-0.5
					C496.7,107.4,497,107,497.3,106.5z M497.3,104.5c-0.1-0.5-0.3-0.9-0.6-1.3c-0.2-0.3-0.6-0.6-1-0.8c-0.4-0.2-0.8-0.3-1.3-0.3
					c-0.8,0-1.4,0.2-1.9,0.7c-0.4,0.3-0.7,0.9-0.9,1.5L497.3,104.5L497.3,104.5z"/>
				<path class="st4" d="M500.9,101.4h1v1.1c0.3-0.4,0.6-0.8,0.9-1s0.7-0.3,1-0.3c0.3,0,0.6,0.1,0.8,0.2l-0.5,0.8
					c-0.2-0.1-0.4-0.1-0.5-0.1c-0.3,0-0.7,0.1-0.9,0.4c-0.3,0.3-0.5,0.7-0.7,1.3c-0.1,0.4-0.2,1.3-0.2,2.6v2.6h-1V101.4z"/>
				<path class="st4" d="M510.6,102.3l-0.6,0.7c-0.5-0.5-1-0.8-1.5-0.8c-0.3,0-0.6,0.1-0.8,0.3c-0.2,0.2-0.3,0.5-0.3,0.8
					c0,0.2,0.1,0.5,0.3,0.7c0.2,0.2,0.6,0.5,1.2,0.8c0.7,0.4,1.2,0.8,1.5,1.1c0.2,0.4,0.4,0.8,0.4,1.2c0,0.6-0.2,1.2-0.7,1.6
					c-0.4,0.4-1,0.7-1.6,0.7c-0.4,0-0.8-0.1-1.3-0.3c-0.4-0.2-0.7-0.5-1-0.8l0.6-0.7c0.5,0.6,1,0.8,1.6,0.8c0.4,0,0.7-0.1,1-0.4
					c0.3-0.2,0.4-0.6,0.4-0.9c0-0.3-0.1-0.5-0.3-0.8c-0.2-0.2-0.6-0.5-1.2-0.8c-0.7-0.4-1.2-0.7-1.4-1c-0.2-0.3-0.4-0.8-0.4-1.2
					c0-0.6,0.2-1,0.6-1.5c0.4-0.4,0.9-0.6,1.5-0.6C509.2,101.2,509.9,101.6,510.6,102.3z"/>
				<path class="st4" d="M518.9,98.3c0.2,0,0.4,0.1,0.6,0.2c0.1,0.1,0.2,0.3,0.2,0.6s-0.1,0.4-0.2,0.6c-0.1,0.1-0.3,0.2-0.6,0.2
					c-0.2,0-0.4-0.1-0.6-0.2c-0.1-0.1-0.2-0.3-0.2-0.6s0.1-0.4,0.2-0.6C518.5,98.4,518.7,98.3,518.9,98.3z M518.4,101.4h1v7.6h-1
					V101.4z"/>
				<path class="st4" d="M522.5,101.4h1v1.4c0.4-0.5,0.8-0.9,1.3-1.2c0.5-0.2,1-0.4,1.5-0.4c0.6,0,1.1,0.1,1.5,0.4
					c0.4,0.3,0.8,0.7,1,1.2c0.2,0.5,0.3,1.3,0.3,2.3v3.9h-1v-3.6c0-0.9,0-1.5-0.1-1.7c-0.1-0.5-0.3-0.9-0.7-1.1
					c-0.3-0.2-0.8-0.4-1.3-0.4c-0.6,0-1.1,0.2-1.6,0.6s-0.8,0.9-0.9,1.5c-0.1,0.4-0.1,1.1-0.1,2.1v2.8h-1V101.4z"/>
				<path class="st4" d="M537.6,98.8h5.9v1h-4.8v3.2h4.8v1h-4.8v4h4.8v1h-5.8L537.6,98.8L537.6,98.8z"/>
				<path class="st4" d="M546.5,98.8h2c0.8,0,1.5,0.1,1.9,0.3s0.8,0.5,1,0.9c0.2,0.4,0.4,0.8,0.4,1.3s-0.1,0.9-0.3,1.3
					c-0.2,0.4-0.6,0.7-1,0.9c0.5,0.2,0.9,0.4,1.2,0.7c0.3,0.2,0.5,0.5,0.7,0.9c0.1,0.3,0.2,0.7,0.2,1.1c0,0.8-0.3,1.5-0.9,2.1
					c-0.6,0.6-1.4,0.8-2.4,0.8h-2.8L546.5,98.8L546.5,98.8z M547.5,99.8v3.3h0.6c0.7,0,1.2,0,1.5-0.2s0.6-0.3,0.8-0.6
					c0.2-0.3,0.3-0.6,0.3-0.9c0-0.5-0.1-0.8-0.5-1.1s-0.8-0.4-1.5-0.4C548.7,99.8,547.5,99.8,547.5,99.8z M547.5,104.1v3.9h1.3
					c0.8,0,1.3-0.1,1.6-0.2s0.6-0.4,0.8-0.7c0.2-0.3,0.3-0.7,0.3-1c0-0.5-0.1-0.8-0.5-1.2c-0.3-0.3-0.7-0.6-1.2-0.7
					c-0.3-0.1-0.9-0.1-1.8-0.1L547.5,104.1L547.5,104.1z"/>
				<path class="st4" d="M555.8,98.8h2.1c1.2,0,2,0,2.4,0.1c0.6,0.1,1.1,0.4,1.5,0.9s0.6,1,0.6,1.7c0,0.7-0.2,1.3-0.6,1.7
					s-0.8,0.8-1.5,0.9c-0.5,0.1-1.3,0.2-2.6,0.2h-0.8v4.8h-1V98.8L555.8,98.8z M556.8,99.8v3.5h1.7c0.7,0,1.2,0,1.5-0.2
					s0.6-0.3,0.8-0.6c0.2-0.3,0.3-0.6,0.3-0.9c0-0.3-0.1-0.7-0.3-0.9c-0.2-0.3-0.4-0.5-0.8-0.6c-0.3-0.1-0.8-0.2-1.5-0.2
					C558.6,99.8,556.8,99.8,556.8,99.8z"/>
				<path class="st4" d="M565.4,98.8h2.1c1.2,0,2,0,2.4,0.1c0.6,0.1,1.1,0.4,1.5,0.9s0.6,1,0.6,1.7c0,0.7-0.2,1.3-0.6,1.7
					s-0.8,0.8-1.5,0.9c-0.5,0.1-1.3,0.2-2.6,0.2h-0.8v4.8h-1L565.4,98.8L565.4,98.8z M566.4,99.8v3.5h1.7c0.7,0,1.2,0,1.5-0.2
					s0.6-0.3,0.8-0.6c0.2-0.3,0.3-0.6,0.3-0.9c0-0.3-0.1-0.7-0.3-0.9c-0.2-0.3-0.4-0.5-0.8-0.6c-0.3-0.1-0.8-0.2-1.5-0.2
					C568.2,99.8,566.4,99.8,566.4,99.8z"/>
				<path class="st4" d="M579,107.1l0.9-0.5c0.6,1.1,1.3,1.7,2.1,1.7c0.3,0,0.7-0.1,1-0.2c0.3-0.1,0.5-0.4,0.7-0.7
					c0.1-0.3,0.2-0.6,0.2-0.8c0-0.3-0.1-0.7-0.3-1c-0.3-0.5-0.9-1-1.7-1.6s-1.4-1.1-1.6-1.4c-0.4-0.5-0.6-1-0.6-1.5
					c0-0.5,0.1-0.8,0.3-1.2c0.2-0.4,0.5-0.7,0.9-0.8c0.4-0.2,0.8-0.3,1.3-0.3c0.5,0,0.9,0.1,1.4,0.4c0.4,0.2,0.8,0.7,1.3,1.3
					l-0.8,0.7c-0.4-0.5-0.7-0.8-1-1c-0.3-0.1-0.6-0.2-0.9-0.2c-0.4,0-0.8,0.1-1,0.4c-0.3,0.2-0.4,0.6-0.4,0.9c0,0.2,0,0.4,0.1,0.7
					c0.1,0.2,0.3,0.4,0.5,0.7c0.1,0.1,0.6,0.5,1.3,1c0.9,0.7,1.5,1.2,1.8,1.7s0.5,1,0.5,1.5c0,0.8-0.3,1.4-0.8,1.9
					c-0.6,0.6-1.3,0.8-2.1,0.8c-0.6,0-1.2-0.2-1.7-0.5C579.9,108.5,579.4,107.9,579,107.1z"/>
				<path class="st4" d="M591.8,101.2c1.2,0,2.2,0.4,2.9,1.3c0.7,0.8,1,1.7,1,2.7c0,1.1-0.4,2-1.1,2.8c-0.8,0.8-1.7,1.2-2.9,1.2
					s-2.1-0.4-2.9-1.2c-0.8-0.8-1.1-1.7-1.1-2.8s0.3-2,1-2.7C589.6,101.7,590.6,101.2,591.8,101.2z M591.8,102.2
					c-0.8,0-1.5,0.3-2.1,0.9c-0.6,0.6-0.9,1.3-0.9,2.2c0,0.6,0.1,1.1,0.4,1.5c0.3,0.5,0.6,0.8,1.1,1.1c0.5,0.2,0.9,0.4,1.5,0.4
					c0.6,0,1-0.1,1.5-0.4c0.5-0.2,0.8-0.6,1.1-1.1c0.3-0.5,0.4-1,0.4-1.5c0-0.8-0.3-1.6-0.9-2.2
					C593.3,102.5,592.6,102.2,591.8,102.2z"/>
				<path class="st4" d="M598.5,98.5h1V109h-1V98.5z"/>
				<path class="st4" d="M602.5,101.4h1v3.5c0,0.8,0,1.5,0.1,1.8c0.1,0.5,0.4,0.8,0.8,1.1c0.4,0.3,0.8,0.4,1.4,0.4
					c0.6,0,1-0.1,1.4-0.4c0.4-0.3,0.7-0.6,0.8-1c0.1-0.3,0.1-0.9,0.1-1.9v-3.5h1v3.7c0,1-0.1,1.8-0.4,2.3c-0.2,0.5-0.6,0.9-1.1,1.3
					c-0.5,0.3-1.1,0.5-1.8,0.5s-1.4-0.1-1.8-0.5c-0.5-0.3-0.8-0.7-1.1-1.3c-0.2-0.5-0.4-1.4-0.4-2.4L602.5,101.4L602.5,101.4z"/>
				<path class="st4" d="M613.3,98.6h1v2.8h1.5v0.8h-1.5v6.8h-1v-6.8H612v-0.8h1.3V98.6z"/>
				<path class="st4" d="M618.8,98.3c0.2,0,0.4,0.1,0.6,0.2s0.2,0.3,0.2,0.6s-0.1,0.4-0.2,0.6c-0.1,0.1-0.3,0.2-0.6,0.2
					c-0.2,0-0.4-0.1-0.6-0.2c-0.1-0.1-0.2-0.3-0.2-0.6s0.1-0.4,0.2-0.6C618.4,98.4,618.6,98.3,618.8,98.3z M618.3,101.4h1v7.6h-1
					V101.4z"/>
				<path class="st4" d="M626,101.2c1.2,0,2.2,0.4,2.9,1.3c0.7,0.8,1,1.7,1,2.7c0,1.1-0.4,2-1.1,2.8c-0.8,0.8-1.7,1.2-2.9,1.2
					c-1.2,0-2.1-0.4-2.9-1.2c-0.8-0.8-1.1-1.7-1.1-2.8s0.3-2,1-2.7C623.9,101.7,624.9,101.2,626,101.2z M626,102.2
					c-0.8,0-1.5,0.3-2.1,0.9c-0.6,0.6-0.9,1.3-0.9,2.2c0,0.6,0.1,1.1,0.4,1.5c0.3,0.5,0.6,0.8,1.1,1.1s0.9,0.4,1.5,0.4
					s1-0.1,1.5-0.4s0.8-0.6,1.1-1.1c0.3-0.5,0.4-1,0.4-1.5c0-0.8-0.3-1.6-0.9-2.2C627.5,102.5,626.9,102.2,626,102.2z"/>
				<path class="st4" d="M632.9,101.4h1v1.4c0.4-0.5,0.8-0.9,1.3-1.2c0.5-0.2,1-0.4,1.5-0.4c0.6,0,1.1,0.1,1.5,0.4
					c0.4,0.3,0.8,0.7,1,1.2c0.2,0.5,0.3,1.3,0.3,2.3v3.9h-1v-3.6c0-0.9,0-1.5-0.1-1.7c-0.1-0.5-0.3-0.9-0.7-1.1s-0.8-0.4-1.3-0.4
					c-0.6,0-1.1,0.2-1.6,0.6c-0.5,0.4-0.8,0.9-0.9,1.5c-0.1,0.4-0.1,1.1-0.1,2.1v2.8h-1V101.4L632.9,101.4z"/>
				<path class="st4" d="M646.7,102.3l-0.6,0.7c-0.5-0.5-1-0.8-1.5-0.8c-0.3,0-0.6,0.1-0.8,0.3c-0.2,0.2-0.3,0.5-0.3,0.8
					c0,0.2,0.1,0.5,0.3,0.7c0.2,0.2,0.6,0.5,1.2,0.8c0.7,0.4,1.2,0.8,1.5,1.1c0.2,0.4,0.4,0.8,0.4,1.2c0,0.6-0.2,1.2-0.7,1.6
					c-0.4,0.4-1,0.7-1.6,0.7c-0.4,0-0.8-0.1-1.3-0.3c-0.4-0.2-0.7-0.5-1-0.8l0.6-0.7c0.5,0.6,1,0.8,1.6,0.8c0.4,0,0.7-0.1,1-0.4
					c0.3-0.2,0.4-0.6,0.4-0.9c0-0.3-0.1-0.5-0.3-0.8c-0.2-0.2-0.6-0.5-1.2-0.8c-0.7-0.4-1.2-0.7-1.4-1c-0.2-0.3-0.4-0.8-0.4-1.2
					c0-0.6,0.2-1,0.6-1.5c0.4-0.4,0.9-0.6,1.5-0.6C645.2,101.2,645.9,101.6,646.7,102.3z"/>
			</g>
		</g>
	</g>
	<g>
		<polygon class="st8" points="47.1,99.1 47.1,92.4 45.1,92.4 45.1,107.6 47.1,107.6 47.1,100.9 308.1,100.9 308.1,99.1 		"/>
		<polygon class="st8" points="942.9,100.9 942.9,107.6 944.9,107.6 944.9,92.4 942.9,92.4 942.9,99.1 681.9,99.1 681.9,100.9 		"/>
	</g>
</g>
</svg>
